<?xml version="1.0" encoding="UTF-8"?>
<!DOCTYPE svg PUBLIC "-//W3C//DTD SVG 1.1//EN" "http://www.w3.org/Graphics/SVG/1.1/DTD/svg11.dtd">
<svg xmlns="http://www.w3.org/2000/svg" version="1.1" width="500px" height="500px" style="shape-rendering:geometricPrecision; text-rendering:geometricPrecision; image-rendering:optimizeQuality; fill-rule:evenodd; clip-rule:evenodd" xmlns:xlink="http://www.w3.org/1999/xlink">
<g><path style="opacity:0.575" fill="#5e5e5e" d="M 494.5,32.5 C 487.585,28.5831 480.252,27.5831 472.5,29.5C 473.263,28.7321 474.263,28.2321 475.5,28C 482.717,26.3804 489.051,27.8804 494.5,32.5 Z"/></g>
<g><path style="opacity:0.994" fill="#060606" d="M 494.5,32.5 C 496.395,33.973 498.061,35.6397 499.5,37.5C 499.5,43.5 499.5,49.5 499.5,55.5C 497.527,58.1395 495.194,60.4728 492.5,62.5C 486.833,66.1667 482.167,70.8333 478.5,76.5C 469.167,85.1667 460.167,94.1667 451.5,103.5C 448.167,104.833 445.833,107.167 444.5,110.5C 441.5,111.5 439.5,113.5 438.5,116.5C 428.5,125.833 418.833,135.5 409.5,145.5C 404.833,148.167 401.167,151.833 398.5,156.5C 397.167,156.5 396.5,157.167 396.5,158.5C 385.5,168.833 374.833,179.5 364.5,190.5C 361.5,191.5 359.5,193.5 358.5,196.5C 358.167,197.5 357.5,198.167 356.5,198.5C 354.5,198.5 353.5,199.5 353.5,201.5C 345.833,208.5 338.5,215.833 331.5,223.5C 329.821,223.285 328.821,223.952 328.5,225.5C 326.833,227.833 324.833,229.833 322.5,231.5C 320.5,231.5 319.5,232.5 319.5,234.5C 318.167,234.5 317.5,235.167 317.5,236.5C 316.167,236.5 315.5,237.167 315.5,238.5C 303.833,249.5 292.5,260.833 281.5,272.5C 280.167,272.5 279.5,273.167 279.5,274.5C 278.167,274.5 277.5,275.167 277.5,276.5C 276.167,276.5 275.5,277.167 275.5,278.5C 273.167,278.833 271.833,280.167 271.5,282.5C 269.5,282.5 268.5,283.5 268.5,285.5C 258.5,294.833 248.833,304.5 239.5,314.5C 237.167,314.833 235.833,316.167 235.5,318.5C 232.5,319.5 230.5,321.5 229.5,324.5C 221.899,331.323 213.566,332.156 204.5,327C 174.333,296.833 144.167,266.667 114,236.5C 112.295,234.423 111.128,232.09 110.5,229.5C 109.91,222.87 110.91,216.536 113.5,210.5C 115.5,210.5 116.5,209.5 116.5,207.5C 124.484,202.294 132.484,202.294 140.5,207.5C 148.445,217.113 157.111,226.113 166.5,234.5C 171.833,239.5 177.167,244.5 182.5,249.5C 190.111,258.779 198.445,267.446 207.5,275.5C 210.147,277.811 212.814,280.144 215.5,282.5C 217.186,281.143 218.852,279.81 220.5,278.5C 227.167,273.833 232.833,268.167 237.5,261.5C 241.5,256.833 245.833,252.5 250.5,248.5C 254.544,246.456 257.544,243.456 259.5,239.5C 266.5,234.5 272.5,228.5 277.5,221.5C 282.833,215.5 288.5,209.833 294.5,204.5C 297.833,203.167 300.167,200.833 301.5,197.5C 302.167,196.167 303.167,195.167 304.5,194.5C 311.167,189.833 316.833,184.167 321.5,177.5C 325.5,172.833 329.833,168.5 334.5,164.5C 338.146,162.518 341.146,159.851 343.5,156.5C 344.167,155.167 345.167,154.167 346.5,153.5C 347.525,153.103 347.692,152.437 347,151.5C 342.938,145.936 338.104,141.269 332.5,137.5C 328.461,132.46 323.794,128.127 318.5,124.5C 317.738,122.738 316.404,121.738 314.5,121.5C 313.738,119.738 312.404,118.738 310.5,118.5C 305.019,113.254 298.686,109.254 291.5,106.5C 282.331,101.91 272.997,97.91 263.5,94.5C 259.597,92.1022 255.264,90.7689 250.5,90.5C 222.76,84.8982 195.093,85.2315 167.5,91.5C 159.948,92.4616 152.948,94.7949 146.5,98.5C 139.691,102.07 132.691,105.403 125.5,108.5C 116.952,112.604 109.286,117.937 102.5,124.5C 94.8416,130.492 87.8416,137.159 81.5,144.5C 74.3652,150.643 68.6985,157.976 64.5,166.5C 52.5406,185.397 44.5406,205.73 40.5,227.5C 38.0818,235.187 37.0818,243.187 37.5,251.5C 36.3348,260.866 36.6682,270.199 38.5,279.5C 40.6156,298.196 45.6156,316.196 53.5,333.5C 53.7553,336.016 54.5886,338.35 56,340.5C 58.0285,344.58 60.5285,348.246 63.5,351.5C 63.427,353.027 64.0937,354.027 65.5,354.5C 65.427,356.027 66.0937,357.027 67.5,357.5C 67.427,359.027 68.0937,360.027 69.5,360.5C 77.397,370.737 86.0636,380.404 95.5,389.5C 95.8212,391.048 96.8212,391.715 98.5,391.5C 99.5,391.833 100.167,392.5 100.5,393.5C 100.821,395.048 101.821,395.715 103.5,395.5C 103.967,398.297 105.633,399.631 108.5,399.5C 109.872,400.512 111.205,401.512 112.5,402.5C 113.663,404.982 115.663,406.316 118.5,406.5C 126.674,411.921 135.341,416.254 144.5,419.5C 145.058,420.79 146.058,421.623 147.5,422C 152.429,423.81 157.429,425.31 162.5,426.5C 168.387,427.39 174.054,428.723 179.5,430.5C 183.921,431.945 188.588,432.778 193.5,433C 199.167,433.167 204.833,433.333 210.5,433.5C 218.726,433.698 226.726,433.031 234.5,431.5C 239.63,430.087 244.963,429.087 250.5,428.5C 258.057,427.535 265.057,425.201 271.5,421.5C 295.219,412.132 316.219,398.466 334.5,380.5C 336.167,379.5 337.5,378.167 338.5,376.5C 342.53,371.476 346.53,366.476 350.5,361.5C 355.61,356.363 359.61,350.363 362.5,343.5C 363.227,341.046 364.227,338.713 365.5,336.5C 367.048,336.179 367.715,335.179 367.5,333.5C 371.734,324.724 375.067,315.724 377.5,306.5C 379.373,302.485 380.373,298.151 380.5,293.5C 381.239,286.326 382.239,279.326 383.5,272.5C 384.035,265.212 385.035,257.879 386.5,250.5C 389.939,244.02 395.439,240.687 403,240.5C 415.275,241.776 421.775,248.61 422.5,261C 421.942,278.88 419.609,296.38 415.5,313.5C 413.259,318.9 411.592,324.567 410.5,330.5C 408.287,337.916 405.287,344.916 401.5,351.5C 397.793,356.247 395.126,361.581 393.5,367.5C 391.952,367.821 391.285,368.821 391.5,370.5C 389.952,370.821 389.285,371.821 389.5,373.5C 384.888,380.778 379.888,387.778 374.5,394.5C 366.77,401.228 359.77,408.561 353.5,416.5C 346.765,422.576 339.765,428.243 332.5,433.5C 330.821,433.285 329.821,433.952 329.5,435.5C 324.957,436.596 321.291,438.93 318.5,442.5C 315.966,442.259 314.3,443.259 313.5,445.5C 297.885,454.432 281.218,460.932 263.5,465C 258.878,466.156 254.211,466.99 249.5,467.5C 241.966,468.024 234.632,469.024 227.5,470.5C 221.843,471.166 216.01,471.499 210,471.5C 201.28,471.682 192.78,471.016 184.5,469.5C 177.327,467.969 169.993,466.636 162.5,465.5C 151.792,463.483 141.459,460.483 131.5,456.5C 130.22,455.069 128.553,454.402 126.5,454.5C 119.547,451.69 112.88,448.357 106.5,444.5C 106.027,443.094 105.027,442.427 103.5,442.5C 97.0244,437.092 90.0244,432.425 82.5,428.5C 77.5389,424.874 72.8722,420.874 68.5,416.5C 61.4249,408.758 54.0915,401.425 46.5,394.5C 46.9118,392.027 45.9118,390.694 43.5,390.5C 43.7148,388.821 43.0481,387.821 41.5,387.5C 38.2407,383.304 35.2407,378.97 32.5,374.5C 29.5476,368.595 26.5476,362.595 23.5,356.5C 23.0431,355.702 22.3764,355.369 21.5,355.5C 17.407,348.241 14.0737,340.574 11.5,332.5C 9.73892,324.558 7.40559,316.891 4.5,309.5C 2.32106,302.27 0.654396,294.937 -0.5,287.5C -0.5,268.5 -0.5,249.5 -0.5,230.5C 1.71466,218.642 4.71466,206.975 8.5,195.5C 10.2798,194.01 10.9465,192.01 10.5,189.5C 10.4021,187.447 11.0687,185.78 12.5,184.5C 15.6776,178.804 18.3443,172.804 20.5,166.5C 26.4167,152.983 34.0834,140.65 43.5,129.5C 44.9063,129.027 45.573,128.027 45.5,126.5C 48.4578,121.874 52.1245,117.874 56.5,114.5C 59.1667,113.833 60.8333,112.167 61.5,109.5C 65.1667,107.833 67.8333,105.167 69.5,101.5C 74.2288,96.4393 79.5622,92.106 85.5,88.5C 87.4044,88.2624 88.7377,87.2624 89.5,85.5C 100.391,77.885 112.058,71.5516 124.5,66.5C 131.46,64.346 138.126,61.6793 144.5,58.5C 151.478,55.5866 158.811,53.5866 166.5,52.5C 176.327,51.3336 185.993,50.0003 195.5,48.5C 205.5,47.1667 215.5,47.1667 225.5,48.5C 232.994,49.7594 240.661,50.7594 248.5,51.5C 254.809,51.9593 260.809,53.2926 266.5,55.5C 273.943,58.5377 281.609,61.2044 289.5,63.5C 312.815,72.1429 333.482,84.8096 351.5,101.5C 351.833,103.833 353.167,105.167 355.5,105.5C 356.422,107.816 358.089,109.483 360.5,110.5C 365.33,114.497 369.664,118.997 373.5,124C 375.435,123.942 377.102,123.109 378.5,121.5C 381.167,120.833 382.833,119.167 383.5,116.5C 386.167,115.833 387.833,114.167 388.5,111.5C 393.833,108.167 398.167,103.833 401.5,98.5C 406.833,92.5 412.5,86.8333 418.5,81.5C 422.5,79.5 425.5,76.5 427.5,72.5C 428.5,70.8333 429.833,69.5 431.5,68.5C 436.833,65.1667 441.167,60.8333 444.5,55.5C 452.925,45.7374 462.258,37.0707 472.5,29.5C 480.252,27.5831 487.585,28.5831 494.5,32.5 Z"/></g>
<g><path style="opacity:0.118" fill="#cbcbcb" d="M 225.5,48.5 C 233.457,48.3049 241.124,49.3049 248.5,51.5C 240.661,50.7594 232.994,49.7594 225.5,48.5 Z"/></g>
<g><path style="opacity:0.145" fill="#c1c1c1" d="M 195.5,48.5 C 185.993,50.0003 176.327,51.3336 166.5,52.5C 175.858,49.8779 185.525,48.5446 195.5,48.5 Z"/></g>
<g><path style="opacity:0.29" fill="#949494" d="M 266.5,55.5 C 274.67,56.9997 282.336,59.6663 289.5,63.5C 281.609,61.2044 273.943,58.5377 266.5,55.5 Z"/></g>
<g><path style="opacity:0.529" fill="#646464" d="M 444.5,55.5 C 441.167,60.8333 436.833,65.1667 431.5,68.5C 435.5,63.8333 439.833,59.5 444.5,55.5 Z"/></g>
<g><path style="opacity:0.208" fill="#878787" d="M 144.5,58.5 C 138.126,61.6793 131.46,64.346 124.5,66.5C 130.628,62.779 137.295,60.1124 144.5,58.5 Z"/></g>
<g><path style="opacity:0.059" fill="#b5b5b5" d="M 492.5,62.5 C 488.167,67.5 483.5,72.1667 478.5,76.5C 482.167,70.8333 486.833,66.1667 492.5,62.5 Z"/></g>
<g><path style="opacity:0.482" fill="#575757" d="M 427.5,72.5 C 425.5,76.5 422.5,79.5 418.5,81.5C 421.167,78.1667 424.167,75.1667 427.5,72.5 Z"/></g>
<g><path style="opacity:0.165" fill="#d6d6d6" d="M 89.5,85.5 C 88.7377,87.2624 87.4044,88.2624 85.5,88.5C 86.2623,86.7376 87.5956,85.7376 89.5,85.5 Z"/></g>
<g><path style="opacity:0.682" fill="#484848" d="M 250.5,90.5 C 255.264,90.7689 259.597,92.1022 263.5,94.5C 258.928,93.6124 254.595,92.2791 250.5,90.5 Z"/></g>
<g><path style="opacity:0.518" fill="#606060" d="M 167.5,91.5 C 160.647,94.0065 153.647,96.3398 146.5,98.5C 152.948,94.7949 159.948,92.4616 167.5,91.5 Z"/></g>
<g><path style="opacity:0.569" fill="#797979" d="M 351.5,101.5 C 353.167,102.5 354.5,103.833 355.5,105.5C 353.167,105.167 351.833,103.833 351.5,101.5 Z"/></g>
<g><path style="opacity:0.553" fill="#686868" d="M 401.5,98.5 C 398.167,103.833 393.833,108.167 388.5,111.5C 392.5,106.833 396.833,102.5 401.5,98.5 Z"/></g>
<g><path style="opacity:0.067" fill="#b9b9b9" d="M 451.5,103.5 C 449.5,106.167 447.167,108.5 444.5,110.5C 445.833,107.167 448.167,104.833 451.5,103.5 Z"/></g>
<g><path style="opacity:0.569" fill="#5c5c5c" d="M 69.5,101.5 C 67.8333,105.167 65.1667,107.833 61.5,109.5C 63.8333,106.5 66.5,103.833 69.5,101.5 Z"/></g>
<g><path style="opacity:0.298" fill="#777777" d="M 355.5,105.5 C 357.911,106.517 359.578,108.184 360.5,110.5C 358.089,109.483 356.422,107.816 355.5,105.5 Z"/></g>
<g><path style="opacity:0.149" fill="#b3b3b3" d="M 291.5,106.5 C 298.686,109.254 305.019,113.254 310.5,118.5C 303.99,114.747 297.656,110.747 291.5,106.5 Z"/></g>
<g><path style="opacity:0.553" fill="#545454" d="M 61.5,109.5 C 60.8333,112.167 59.1667,113.833 56.5,114.5C 57.8333,112.5 59.5,110.833 61.5,109.5 Z"/></g>
<g><path style="opacity:0.067" fill="#b7b7b7" d="M 444.5,110.5 C 442.833,112.833 440.833,114.833 438.5,116.5C 439.5,113.5 441.5,111.5 444.5,110.5 Z"/></g>
<g><path style="opacity:0.09" fill="#cbcbcb" d="M 125.5,108.5 C 118.016,114.077 110.35,119.41 102.5,124.5C 109.286,117.937 116.952,112.604 125.5,108.5 Z"/></g>
<g><path style="opacity:0.471" fill="#5d5d5d" d="M 388.5,111.5 C 387.833,114.167 386.167,115.833 383.5,116.5C 384.833,114.5 386.5,112.833 388.5,111.5 Z"/></g>
<g><path style="opacity:0.302" fill="#b5b5b5" d="M 310.5,118.5 C 312.404,118.738 313.738,119.738 314.5,121.5C 312.596,121.262 311.262,120.262 310.5,118.5 Z"/></g>
<g><path style="opacity:0.408" fill="#585858" d="M 383.5,116.5 C 382.833,119.167 381.167,120.833 378.5,121.5C 379.833,119.5 381.5,117.833 383.5,116.5 Z"/></g>
<g><path style="opacity:0.325" fill="#b7b7b7" d="M 314.5,121.5 C 316.404,121.738 317.738,122.738 318.5,124.5C 316.596,124.262 315.262,123.262 314.5,121.5 Z"/></g>
<g><path style="opacity:0.09" fill="#dcdcdc" d="M 45.5,126.5 C 45.573,128.027 44.9063,129.027 43.5,129.5C 43.427,127.973 44.0937,126.973 45.5,126.5 Z"/></g>
<g><path style="opacity:0.506" fill="#a1a1a1" d="M 332.5,137.5 C 338.104,141.269 342.938,145.936 347,151.5C 347.692,152.437 347.525,153.103 346.5,153.5C 342.206,147.871 337.539,142.537 332.5,137.5 Z"/></g>
<g><path style="opacity:0.043" fill="#c2c2c2" d="M 81.5,144.5 C 75.8024,151.857 70.1358,159.191 64.5,166.5C 68.6985,157.976 74.3652,150.643 81.5,144.5 Z"/></g>
<g><path style="opacity:0.063" fill="#b4b4b4" d="M 409.5,145.5 C 406.167,149.5 402.5,153.167 398.5,156.5C 401.167,151.833 404.833,148.167 409.5,145.5 Z"/></g>
<g><path style="opacity:0.059" fill="#c3c3c3" d="M 398.5,156.5 C 398.167,157.5 397.5,158.167 396.5,158.5C 396.5,157.167 397.167,156.5 398.5,156.5 Z"/></g>
<g><path style="opacity:0.4" fill="#555555" d="M 343.5,156.5 C 341.146,159.851 338.146,162.518 334.5,164.5C 336.88,161.119 339.88,158.453 343.5,156.5 Z"/></g>
<g><path style="opacity:0.09" fill="#9e9e9e" d="M 20.5,166.5 C 18.3443,172.804 15.6776,178.804 12.5,184.5C 14.1177,177.94 16.7844,171.94 20.5,166.5 Z"/></g>
<g><path style="opacity:0.506" fill="#6a6a6a" d="M 321.5,177.5 C 316.833,184.167 311.167,189.833 304.5,194.5C 309.833,188.5 315.5,182.833 321.5,177.5 Z"/></g>
<g><path style="opacity:0.522" fill="#727272" d="M 10.5,189.5 C 10.9465,192.01 10.2798,194.01 8.5,195.5C 8.59495,193.214 9.26162,191.214 10.5,189.5 Z"/></g>
<g><path style="opacity:0.055" fill="#b8b8b8" d="M 364.5,190.5 C 362.833,192.833 360.833,194.833 358.5,196.5C 359.5,193.5 361.5,191.5 364.5,190.5 Z"/></g>
<g><path style="opacity:0.047" fill="#bfbfbf" d="M 356.5,198.5 C 355.833,199.833 354.833,200.833 353.5,201.5C 353.5,199.5 354.5,198.5 356.5,198.5 Z"/></g>
<g><path style="opacity:0.529" fill="#595959" d="M 301.5,197.5 C 300.167,200.833 297.833,203.167 294.5,204.5C 296.5,201.833 298.833,199.5 301.5,197.5 Z"/></g>
<g><path style="opacity:0.282" fill="#aaaaaa" d="M 140.5,207.5 C 149.889,215.887 158.555,224.887 166.5,234.5C 157.111,226.113 148.445,217.113 140.5,207.5 Z"/></g>
<g><path style="opacity:0.471" fill="#7f7f7f" d="M 116.5,207.5 C 116.5,209.5 115.5,210.5 113.5,210.5C 114.167,209.167 115.167,208.167 116.5,207.5 Z"/></g>
<g><path style="opacity:0.542" fill="#616161" d="M 113.5,210.5 C 110.91,216.536 109.91,222.87 110.5,229.5C 109.353,225.354 109.186,221.02 110,216.5C 110.424,213.975 111.59,211.975 113.5,210.5 Z"/></g>
<g><path style="opacity:0.243" fill="#9b9b9b" d="M 331.5,223.5 C 330.71,224.401 329.71,225.068 328.5,225.5C 328.821,223.952 329.821,223.285 331.5,223.5 Z"/></g>
<g><path style="opacity:0.522" fill="#686868" d="M 277.5,221.5 C 272.5,228.5 266.5,234.5 259.5,239.5C 265.167,233.167 271.167,227.167 277.5,221.5 Z"/></g>
<g><path style="opacity:0.082" fill="#bababa" d="M 322.5,231.5 C 321.833,232.833 320.833,233.833 319.5,234.5C 319.5,232.5 320.5,231.5 322.5,231.5 Z"/></g>
<g><path style="opacity:0.086" fill="#bebebe" d="M 319.5,234.5 C 319.167,235.5 318.5,236.167 317.5,236.5C 317.5,235.167 318.167,234.5 319.5,234.5 Z"/></g>
<g><path style="opacity:0.082" fill="#bfbfbf" d="M 317.5,236.5 C 317.167,237.5 316.5,238.167 315.5,238.5C 315.5,237.167 316.167,236.5 317.5,236.5 Z"/></g>
<g><path style="opacity:0.074" fill="#e5e5e5" d="M 40.5,227.5 C 39.4941,235.639 38.4941,243.639 37.5,251.5C 37.0818,243.187 38.0818,235.187 40.5,227.5 Z"/></g>
<g><path style="opacity:0.584" fill="#515151" d="M 259.5,239.5 C 257.544,243.456 254.544,246.456 250.5,248.5C 253.167,245.167 256.167,242.167 259.5,239.5 Z"/></g>
<g><path style="opacity:0.361" fill="#ababab" d="M 182.5,249.5 C 191.555,257.554 199.889,266.221 207.5,275.5C 198.445,267.446 190.111,258.779 182.5,249.5 Z"/></g>
<g><path style="opacity:0.091" fill="#dddddd" d="M 37.5,251.5 C 37.7447,260.837 38.0781,270.171 38.5,279.5C 36.6682,270.199 36.3348,260.866 37.5,251.5 Z"/></g>
<g><path style="opacity:0.129" fill="#c4c4c4" d="M 386.5,250.5 C 385.035,257.879 384.035,265.212 383.5,272.5C 383.334,266.491 383.501,260.491 384,254.5C 384.2,252.68 385.034,251.347 386.5,250.5 Z"/></g>
<g><path style="opacity:0.58" fill="#6a6a6a" d="M 237.5,261.5 C 232.833,268.167 227.167,273.833 220.5,278.5C 225.833,272.5 231.5,266.833 237.5,261.5 Z"/></g>
<g><path style="opacity:0.082" fill="#bcbcbc" d="M 281.5,272.5 C 281.167,273.5 280.5,274.167 279.5,274.5C 279.5,273.167 280.167,272.5 281.5,272.5 Z"/></g>
<g><path style="opacity:0.086" fill="#bebebe" d="M 279.5,274.5 C 279.167,275.5 278.5,276.167 277.5,276.5C 277.5,275.167 278.167,274.5 279.5,274.5 Z"/></g>
<g><path style="opacity:0.086" fill="#bfbfbf" d="M 277.5,276.5 C 277.167,277.5 276.5,278.167 275.5,278.5C 275.5,277.167 276.167,276.5 277.5,276.5 Z"/></g>
<g><path style="opacity:0.082" fill="#b2b2b2" d="M 275.5,278.5 C 274.5,280.167 273.167,281.5 271.5,282.5C 271.833,280.167 273.167,278.833 275.5,278.5 Z"/></g>
<g><path style="opacity:0.063" fill="#b7b7b7" d="M 271.5,282.5 C 270.833,283.833 269.833,284.833 268.5,285.5C 268.5,283.5 269.5,282.5 271.5,282.5 Z"/></g>
<g><path style="opacity:0.088" fill="#d5d5d5" d="M 380.5,293.5 C 380.373,298.151 379.373,302.485 377.5,306.5C 377.882,301.908 378.882,297.575 380.5,293.5 Z"/></g>
<g><path style="opacity:0.078" fill="#b1b1b1" d="M 239.5,314.5 C 238.5,316.167 237.167,317.5 235.5,318.5C 235.833,316.167 237.167,314.833 239.5,314.5 Z"/></g>
<g><path style="opacity:0.157" fill="#c5c5c5" d="M 4.5,309.5 C 7.40559,316.891 9.73892,324.558 11.5,332.5C 8.18872,325.225 5.85538,317.559 4.5,309.5 Z"/></g>
<g><path style="opacity:0.075" fill="#b5b5b5" d="M 235.5,318.5 C 233.833,320.833 231.833,322.833 229.5,324.5C 230.5,321.5 232.5,319.5 235.5,318.5 Z"/></g>
<g><path style="opacity:0.089" fill="#e1e1e1" d="M 415.5,313.5 C 414.813,319.552 413.146,325.218 410.5,330.5C 411.592,324.567 413.259,318.9 415.5,313.5 Z"/></g>
<g><path style="opacity:0.39" fill="#7b7b7b" d="M 367.5,333.5 C 367.715,335.179 367.048,336.179 365.5,336.5C 365.932,335.29 366.599,334.29 367.5,333.5 Z"/></g>
<g><path style="opacity:0.267" fill="#828282" d="M 53.5,333.5 C 57.337,339.17 60.6704,345.17 63.5,351.5C 60.5285,348.246 58.0285,344.58 56,340.5C 54.5886,338.35 53.7553,336.016 53.5,333.5 Z"/></g>
<g><path style="opacity:0.647" fill="#656565" d="M 362.5,343.5 C 359.61,350.363 355.61,356.363 350.5,361.5C 354.141,355.205 358.141,349.205 362.5,343.5 Z"/></g>
<g><path style="opacity:0.298" fill="#929292" d="M 63.5,351.5 C 64.9063,351.973 65.573,352.973 65.5,354.5C 64.0937,354.027 63.427,353.027 63.5,351.5 Z"/></g>
<g><path style="opacity:0.259" fill="#959595" d="M 65.5,354.5 C 66.9063,354.973 67.573,355.973 67.5,357.5C 66.0937,357.027 65.427,356.027 65.5,354.5 Z"/></g>
<g><path style="opacity:0.286" fill="#939393" d="M 401.5,351.5 C 399.341,357.151 396.674,362.484 393.5,367.5C 395.126,361.581 397.793,356.247 401.5,351.5 Z"/></g>
<g><path style="opacity:0.247" fill="#9d9d9d" d="M 67.5,357.5 C 68.9063,357.973 69.573,358.973 69.5,360.5C 68.0937,360.027 67.427,359.027 67.5,357.5 Z"/></g>
<g><path style="opacity:0.373" fill="#767676" d="M 21.5,355.5 C 22.3764,355.369 23.0431,355.702 23.5,356.5C 26.5476,362.595 29.5476,368.595 32.5,374.5C 28.0909,368.693 24.4242,362.36 21.5,355.5 Z"/></g>
<g><path style="opacity:0.286" fill="#969696" d="M 393.5,367.5 C 393.068,368.71 392.401,369.71 391.5,370.5C 391.285,368.821 391.952,367.821 393.5,367.5 Z"/></g>
<g><path style="opacity:0.412" fill="#959595" d="M 391.5,370.5 C 391.068,371.71 390.401,372.71 389.5,373.5C 389.285,371.821 389.952,370.821 391.5,370.5 Z"/></g>
<g><path style="opacity:0.106" fill="#dedede" d="M 338.5,376.5 C 337.5,378.167 336.167,379.5 334.5,380.5C 334.833,378.167 336.167,376.833 338.5,376.5 Z"/></g>
<g><path style="opacity:0.027" fill="#d3d3d3" d="M 41.5,387.5 C 43.0481,387.821 43.7148,388.821 43.5,390.5C 42.5987,389.71 41.9321,388.71 41.5,387.5 Z"/></g>
<g><path style="opacity:0.467" fill="#b0b0b0" d="M 43.5,390.5 C 45.9118,390.694 46.9118,392.027 46.5,394.5C 45.5116,393.205 44.5116,391.872 43.5,390.5 Z"/></g>
<g><path style="opacity:0.09" fill="#939393" d="M 95.5,389.5 C 96.7095,389.932 97.7095,390.599 98.5,391.5C 96.8212,391.715 95.8212,391.048 95.5,389.5 Z"/></g>
<g><path style="opacity:0.392" fill="#aaaaaa" d="M 46.5,394.5 C 54.0915,401.425 61.4249,408.758 68.5,416.5C 60.1878,410.188 52.8544,402.854 46.5,394.5 Z"/></g>
<g><path style="opacity:0.663" fill="#777777" d="M 100.5,393.5 C 101.71,393.932 102.71,394.599 103.5,395.5C 101.821,395.715 100.821,395.048 100.5,393.5 Z"/></g>
<g><path style="opacity:0.561" fill="#777777" d="M 103.5,395.5 C 105.191,396.864 106.858,398.197 108.5,399.5C 105.633,399.631 103.967,398.297 103.5,395.5 Z"/></g>
<g><path style="opacity:0.725" fill="#747474" d="M 112.5,402.5 C 114.795,403.475 116.795,404.808 118.5,406.5C 115.663,406.316 113.663,404.982 112.5,402.5 Z"/></g>
<g><path style="opacity:0.016" fill="#d0d0d0" d="M 374.5,394.5 C 370.545,399.627 366.378,404.627 362,409.5C 359.584,412.423 356.75,414.757 353.5,416.5C 359.77,408.561 366.77,401.228 374.5,394.5 Z"/></g>
<g><path style="opacity:0.063" fill="#cdcdcd" d="M 144.5,419.5 C 150.733,421.462 156.733,423.796 162.5,426.5C 157.429,425.31 152.429,423.81 147.5,422C 146.058,421.623 145.058,420.79 144.5,419.5 Z"/></g>
<g><path style="opacity:0.061" fill="#c1c1c1" d="M 271.5,421.5 C 265.057,425.201 258.057,427.535 250.5,428.5C 257.342,425.997 264.342,423.664 271.5,421.5 Z"/></g>
<g><path style="opacity:0.249" fill="#979797" d="M 179.5,430.5 C 197.796,432.686 216.129,433.02 234.5,431.5C 226.726,433.031 218.726,433.698 210.5,433.5C 204.833,433.333 199.167,433.167 193.5,433C 188.588,432.778 183.921,431.945 179.5,430.5 Z"/></g>
<g><path style="opacity:0.314" fill="#a4a4a4" d="M 332.5,433.5 C 331.71,434.401 330.71,435.068 329.5,435.5C 329.821,433.952 330.821,433.285 332.5,433.5 Z"/></g>
<g><path style="opacity:0.424" fill="#8e8e8e" d="M 82.5,428.5 C 90.0244,432.425 97.0244,437.092 103.5,442.5C 95.9508,438.61 88.9508,433.944 82.5,428.5 Z"/></g>
<g><path style="opacity:0.337" fill="#9e9e9e" d="M 329.5,435.5 C 326.039,438.069 322.372,440.403 318.5,442.5C 321.291,438.93 324.957,436.596 329.5,435.5 Z"/></g>
<g><path style="opacity:0.251" fill="#a7a7a7" d="M 318.5,442.5 C 317.035,443.737 315.368,444.737 313.5,445.5C 314.3,443.259 315.966,442.259 318.5,442.5 Z"/></g>
<g><path style="opacity:0.255" fill="#9f9f9f" d="M 103.5,442.5 C 105.027,442.427 106.027,443.094 106.5,444.5C 104.973,444.573 103.973,443.906 103.5,442.5 Z"/></g>
<g><path style="opacity:0.063" fill="#e6e6e6" d="M 126.5,454.5 C 128.553,454.402 130.22,455.069 131.5,456.5C 129.447,456.598 127.78,455.931 126.5,454.5 Z"/></g>
<g><path style="opacity:0.549" fill="#464646" d="M 162.5,465.5 C 169.993,466.636 177.327,467.969 184.5,469.5C 176.813,469.443 169.479,468.11 162.5,465.5 Z"/></g>
<g><path style="opacity:0.575" fill="#525252" d="M 249.5,467.5 C 242.434,469.468 235.1,470.468 227.5,470.5C 234.632,469.024 241.966,468.024 249.5,467.5 Z"/></g>
</svg>
