<?xml version="1.0" encoding="UTF-8"?>
<!DOCTYPE svg PUBLIC "-//W3C//DTD SVG 1.1//EN" "http://www.w3.org/Graphics/SVG/1.1/DTD/svg11.dtd">
<svg xmlns="http://www.w3.org/2000/svg" version="1.1" width="500px" height="500px" style="shape-rendering:geometricPrecision; text-rendering:geometricPrecision; image-rendering:optimizeQuality; fill-rule:evenodd; clip-rule:evenodd" xmlns:xlink="http://www.w3.org/1999/xlink">
<g><path style="opacity:1" fill="#050505" d="M 24.5,-0.5 C 27.8333,-0.5 31.1667,-0.5 34.5,-0.5C 39.4066,1.28665 44.0733,3.61998 48.5,6.5C 60.8333,18.1667 72.8333,30.1667 84.5,42.5C 85.8333,44.5 87.5,46.1667 89.5,47.5C 101.833,59.1667 113.833,71.1667 125.5,83.5C 127.167,85.8333 129.167,87.8333 131.5,89.5C 143.833,101.167 155.833,113.167 167.5,125.5C 169.167,127.833 171.167,129.833 173.5,131.5C 185.5,142.833 197.167,154.5 208.5,166.5C 210.5,169.167 212.833,171.5 215.5,173.5C 226.632,184.131 237.632,194.965 248.5,206C 249.167,206.667 249.833,206.667 250.5,206C 253.036,203.295 255.703,200.795 258.5,198.5C 261.5,197.5 263.5,195.5 264.5,192.5C 265.5,190.833 266.833,189.5 268.5,188.5C 271.167,187.833 272.833,186.167 273.5,183.5C 276.5,179.833 279.833,176.5 283.5,173.5C 286.167,171.5 288.5,169.167 290.5,166.5C 292.833,163.5 295.5,160.833 298.5,158.5C 301.5,157.5 303.5,155.5 304.5,152.5C 305.833,150.5 307.5,148.833 309.5,147.5C 312.5,146.5 314.5,144.5 315.5,141.5C 318.5,137.833 321.833,134.5 325.5,131.5C 327.833,129.833 329.833,127.833 331.5,125.5C 333.5,122.833 335.833,120.5 338.5,118.5C 341.5,117.5 343.5,115.5 344.5,112.5C 345.167,111.167 346.167,110.167 347.5,109.5C 350.5,108.5 352.5,106.5 353.5,103.5C 357.833,98.5 362.5,93.8333 367.5,89.5C 369.833,87.8333 371.833,85.8333 373.5,83.5C 377.833,78.5 382.5,73.8333 387.5,69.5C 390.5,68.5 392.5,66.5 393.5,63.5C 395.5,60.8333 397.833,58.5 400.5,56.5C 403.167,55.8333 404.833,54.1667 405.5,51.5C 406.5,49.8333 407.833,48.5 409.5,47.5C 411.5,46.1667 413.167,44.5 414.5,42.5C 415.833,40.5 417.5,38.8333 419.5,37.5C 422.167,36.8333 423.833,35.1667 424.5,32.5C 427.833,28.5 431.5,24.8333 435.5,21.5C 438.5,20.5 440.5,18.5 441.5,15.5C 443.5,12.8333 445.833,10.5 448.5,8.5C 450.749,7.92022 452.415,6.58689 453.5,4.5C 456.907,2.81948 460.241,1.15281 463.5,-0.5C 467.5,-0.5 471.5,-0.5 475.5,-0.5C 480.407,1.28665 485.073,3.61998 489.5,6.5C 490.167,7.83333 491.167,8.83333 492.5,9.5C 493.449,11.7772 494.782,13.7772 496.5,15.5C 496.66,17.153 497.326,18.4863 498.5,19.5C 498.833,19.5 499.167,19.5 499.5,19.5C 499.5,24.5 499.5,29.5 499.5,34.5C 497.713,39.4066 495.38,44.0733 492.5,48.5C 483.5,58.1667 474.167,67.5 464.5,76.5C 462.5,77.8333 460.833,79.5 459.5,81.5C 447.833,93.8333 435.833,105.833 423.5,117.5C 421.167,119.167 419.167,121.167 417.5,123.5C 406.167,135.5 394.5,147.167 382.5,158.5C 379.833,160.5 377.5,162.833 375.5,165.5C 364.167,177.5 352.5,189.167 340.5,200.5C 337.833,202.5 335.5,204.833 333.5,207.5C 322.5,219.167 311.167,230.5 299.5,241.5C 296.833,243.5 294.5,245.833 292.5,248.5C 292.5,249.167 292.5,249.833 292.5,250.5C 294.5,253.167 296.833,255.5 299.5,257.5C 311.167,268.5 322.5,279.833 333.5,291.5C 335.5,294.167 337.833,296.5 340.5,298.5C 352.5,309.833 364.167,321.5 375.5,333.5C 377.5,336.167 379.833,338.5 382.5,340.5C 394.5,351.833 406.167,363.5 417.5,375.5C 419.167,377.833 421.167,379.833 423.5,381.5C 435.833,393.167 447.833,405.167 459.5,417.5C 460.833,419.5 462.5,421.167 464.5,422.5C 473.5,430.833 482.167,439.5 490.5,448.5C 494.271,453.043 497.271,458.043 499.5,463.5C 499.5,467.5 499.5,471.5 499.5,475.5C 497.713,480.407 495.38,485.073 492.5,489.5C 491.167,490.167 490.167,491.167 489.5,492.5C 489.5,493.167 489.167,493.5 488.5,493.5C 483.749,496.302 478.749,498.302 473.5,499.5C 470.167,499.5 466.833,499.5 463.5,499.5C 458.043,497.271 453.043,494.271 448.5,490.5C 436.833,479.5 425.5,468.167 414.5,456.5C 413.167,454.5 411.5,452.833 409.5,451.5C 397.167,439.833 385.167,427.833 373.5,415.5C 371.833,413.167 369.833,411.167 367.5,409.5C 355.167,397.833 343.167,385.833 331.5,373.5C 329.833,371.167 327.833,369.167 325.5,367.5C 313.5,356.167 301.833,344.5 290.5,332.5C 288.5,329.833 286.167,327.5 283.5,325.5C 272.187,314.521 260.854,303.521 249.5,292.5C 238.146,303.521 226.813,314.521 215.5,325.5C 212.833,327.5 210.5,329.833 208.5,332.5C 197.167,344.5 185.5,356.167 173.5,367.5C 171.167,369.167 169.167,371.167 167.5,373.5C 155.833,385.833 143.833,397.833 131.5,409.5C 129.167,411.167 127.167,413.167 125.5,415.5C 113.833,427.833 101.833,439.833 89.5,451.5C 87.5,452.833 85.8333,454.5 84.5,456.5C 72.8333,468.833 60.8333,480.833 48.5,492.5C 44.0733,495.38 39.4066,497.713 34.5,499.5C 29.5,499.5 24.5,499.5 19.5,499.5C 19.5,499.167 19.5,498.833 19.5,498.5C 16.1747,496.503 12.8413,494.503 9.5,492.5C 8.59774,490.659 7.26441,489.326 5.5,488.5C 3.2057,484.248 1.2057,479.915 -0.5,475.5C -0.5,471.5 -0.5,467.5 -0.5,463.5C 1.72878,458.043 4.72878,453.043 8.5,448.5C 9.16667,447.167 10.1667,446.167 11.5,445.5C 14.5,444.5 16.5,442.5 17.5,439.5C 17.8333,438.5 18.5,437.833 19.5,437.5C 22.5,436.5 24.5,434.5 25.5,431.5C 28.1667,428.167 31.1667,425.167 34.5,422.5C 36.5,421.167 38.1667,419.5 39.5,417.5C 51.1667,405.167 63.1667,393.167 75.5,381.5C 77.8333,379.833 79.8333,377.833 81.5,375.5C 84.1667,372.167 87.1667,369.167 90.5,366.5C 93.5,365.5 95.5,363.5 96.5,360.5C 97.1667,359.167 98.1667,358.167 99.5,357.5C 103.167,355.833 105.833,353.167 107.5,349.5C 110.5,345.833 113.833,342.5 117.5,339.5C 119.833,337.833 121.833,335.833 123.5,333.5C 129.167,327.167 135.167,321.167 141.5,315.5C 144.5,314.5 146.5,312.5 147.5,309.5C 150.833,305.5 154.5,301.833 158.5,298.5C 161.167,296.5 163.5,294.167 165.5,291.5C 170.167,286.167 175.167,281.167 180.5,276.5C 184.5,274.5 187.5,271.5 189.5,267.5C 192.5,263.833 195.833,260.5 199.5,257.5C 202.167,255.5 204.5,253.167 206.5,250.5C 206.5,249.833 206.5,249.167 206.5,248.5C 204.5,245.833 202.167,243.5 199.5,241.5C 187.833,230.5 176.5,219.167 165.5,207.5C 163.5,204.833 161.167,202.5 158.5,200.5C 146.5,189.167 134.833,177.5 123.5,165.5C 121.833,163.167 119.833,161.167 117.5,159.5C 105.167,147.833 93.1667,135.833 81.5,123.5C 79.8333,121.167 77.8333,119.167 75.5,117.5C 63.1667,105.833 51.1667,93.8333 39.5,81.5C 38.1667,79.5 36.5,77.8333 34.5,76.5C 24.8333,67.5 15.5,58.1667 6.5,48.5C 3.6148,44.063 1.28147,39.3963 -0.5,34.5C -0.5,31.1667 -0.5,27.8333 -0.5,24.5C 0.94586,21.7458 1.94586,18.7458 2.5,15.5C 5.18455,12.8103 7.51789,9.81035 9.5,6.5C 14.157,3.33696 19.157,1.00363 24.5,-0.5 Z"/></g>
<g><path style="opacity:0.014" fill="#e8e8e8" d="M 460.5,-0.5 C 461.5,-0.5 462.5,-0.5 463.5,-0.5C 460.241,1.15281 456.907,2.81948 453.5,4.5C 453.167,4.5 452.833,4.5 452.5,4.5C 454.863,2.3199 457.53,0.65323 460.5,-0.5 Z"/></g>
<g><path style="opacity:0.055" fill="#c4c4c4" d="M 19.5,-0.5 C 21.1667,-0.5 22.8333,-0.5 24.5,-0.5C 19.157,1.00363 14.157,3.33696 9.5,6.5C 12.1682,3.17006 15.5015,0.836728 19.5,-0.5 Z"/></g>
<g><path style="opacity:0.039" fill="#dadada" d="M 34.5,-0.5 C 35.8333,-0.5 37.1667,-0.5 38.5,-0.5C 42.4985,0.836728 45.8318,3.17006 48.5,6.5C 44.0733,3.61998 39.4066,1.28665 34.5,-0.5 Z"/></g>
<g><path style="opacity:0.008" fill="#d7d7d7" d="M 475.5,-0.5 C 476.833,-0.5 478.167,-0.5 479.5,-0.5C 483.498,0.836728 486.832,3.17006 489.5,6.5C 485.073,3.61998 480.407,1.28665 475.5,-0.5 Z"/></g>
<g><path style="opacity:0.008" fill="#e3e3e3" d="M 489.5,6.5 C 491.5,6.5 492.5,7.5 492.5,9.5C 491.167,8.83333 490.167,7.83333 489.5,6.5 Z"/></g>
<g><path style="opacity:0.761" fill="#7c7c7c" d="M 452.5,4.5 C 452.833,4.5 453.167,4.5 453.5,4.5C 452.415,6.58689 450.749,7.92022 448.5,8.5C 449.5,6.83333 450.833,5.5 452.5,4.5 Z"/></g>
<g><path style="opacity:0.471" fill="#b6b6b6" d="M 9.5,6.5 C 7.51789,9.81035 5.18455,12.8103 2.5,15.5C 2.35055,14.448 2.51722,13.448 3,12.5C 4.9802,10.1013 7.14687,8.10132 9.5,6.5 Z"/></g>
<g><path style="opacity:0.051" fill="#cacaca" d="M 492.5,9.5 C 495.044,10.7079 496.378,12.7079 496.5,15.5C 494.782,13.7772 493.449,11.7772 492.5,9.5 Z"/></g>
<g><path style="opacity:0.014" fill="#e1e1e1" d="M 496.5,15.5 C 498.104,16.287 498.771,17.6203 498.5,19.5C 497.326,18.4863 496.66,17.153 496.5,15.5 Z"/></g>
<g><path style="opacity:0.749" fill="#5f5f5f" d="M 441.5,15.5 C 440.5,18.5 438.5,20.5 435.5,21.5C 437.167,19.1667 439.167,17.1667 441.5,15.5 Z"/></g>
<g><path style="opacity:0.514" fill="#ababab" d="M 2.5,15.5 C 1.94586,18.7458 0.94586,21.7458 -0.5,24.5C -0.5,22.8333 -0.5,21.1667 -0.5,19.5C 0.142944,17.9236 1.14294,16.5903 2.5,15.5 Z"/></g>
<g><path style="opacity:0.847" fill="#555555" d="M 424.5,32.5 C 423.833,35.1667 422.167,36.8333 419.5,37.5C 420.833,35.5 422.5,33.8333 424.5,32.5 Z"/></g>
<g><path style="opacity:0.004" fill="#e5e5e5" d="M 84.5,42.5 C 87.1667,43.1667 88.8333,44.8333 89.5,47.5C 87.5,46.1667 85.8333,44.5 84.5,42.5 Z"/></g>
<g><path style="opacity:0.02" fill="#dbdbdb" d="M -0.5,34.5 C 1.28147,39.3963 3.6148,44.063 6.5,48.5C 3.17006,45.8318 0.836728,42.4985 -0.5,38.5C -0.5,37.1667 -0.5,35.8333 -0.5,34.5 Z"/></g>
<g><path style="opacity:0.02" fill="#e7e7e7" d="M 499.5,34.5 C 499.5,35.8333 499.5,37.1667 499.5,38.5C 498.163,42.4985 495.83,45.8318 492.5,48.5C 495.38,44.0733 497.713,39.4066 499.5,34.5 Z"/></g>
<g><path style="opacity:0.184" fill="#e1e1e1" d="M 414.5,42.5 C 413.167,44.5 411.5,46.1667 409.5,47.5C 410.167,44.8333 411.833,43.1667 414.5,42.5 Z"/></g>
<g><path style="opacity:0.765" fill="#5b5b5b" d="M 405.5,51.5 C 404.833,54.1667 403.167,55.8333 400.5,56.5C 401.833,54.5 403.5,52.8333 405.5,51.5 Z"/></g>
<g><path style="opacity:0.761" fill="#5d5d5d" d="M 393.5,63.5 C 392.5,66.5 390.5,68.5 387.5,69.5C 389.167,67.1667 391.167,65.1667 393.5,63.5 Z"/></g>
<g><path style="opacity:0.004" fill="#e6e6e6" d="M 34.5,76.5 C 36.5,77.8333 38.1667,79.5 39.5,81.5C 36.8333,80.8333 35.1667,79.1667 34.5,76.5 Z"/></g>
<g><path style="opacity:0.004" fill="#eeeeee" d="M 464.5,76.5 C 463.833,79.1667 462.167,80.8333 459.5,81.5C 460.833,79.5 462.5,77.8333 464.5,76.5 Z"/></g>
<g><path style="opacity:0.004" fill="#e6e6e6" d="M 125.5,83.5 C 128.5,84.5 130.5,86.5 131.5,89.5C 129.167,87.8333 127.167,85.8333 125.5,83.5 Z"/></g>
<g><path style="opacity:0.188" fill="#dddddd" d="M 373.5,83.5 C 371.833,85.8333 369.833,87.8333 367.5,89.5C 368.5,86.5 370.5,84.5 373.5,83.5 Z"/></g>
<g><path style="opacity:0.757" fill="#5d5d5d" d="M 353.5,103.5 C 352.5,106.5 350.5,108.5 347.5,109.5C 349.167,107.167 351.167,105.167 353.5,103.5 Z"/></g>
<g><path style="opacity:0.812" fill="#575757" d="M 344.5,112.5 C 343.5,115.5 341.5,117.5 338.5,118.5C 340.167,116.167 342.167,114.167 344.5,112.5 Z"/></g>
<g><path style="opacity:0.004" fill="#e6e6e6" d="M 75.5,117.5 C 77.8333,119.167 79.8333,121.167 81.5,123.5C 78.5,122.5 76.5,120.5 75.5,117.5 Z"/></g>
<g><path style="opacity:0.004" fill="#ededed" d="M 423.5,117.5 C 422.5,120.5 420.5,122.5 417.5,123.5C 419.167,121.167 421.167,119.167 423.5,117.5 Z"/></g>
<g><path style="opacity:0.004" fill="#e4e4e4" d="M 167.5,125.5 C 170.5,126.5 172.5,128.5 173.5,131.5C 171.167,129.833 169.167,127.833 167.5,125.5 Z"/></g>
<g><path style="opacity:0.184" fill="#e0e0e0" d="M 331.5,125.5 C 329.833,127.833 327.833,129.833 325.5,131.5C 326.5,128.5 328.5,126.5 331.5,125.5 Z"/></g>
<g><path style="opacity:0.753" fill="#616161" d="M 315.5,141.5 C 314.5,144.5 312.5,146.5 309.5,147.5C 311.167,145.167 313.167,143.167 315.5,141.5 Z"/></g>
<g><path style="opacity:0.804" fill="#585858" d="M 304.5,152.5 C 303.5,155.5 301.5,157.5 298.5,158.5C 300.167,156.167 302.167,154.167 304.5,152.5 Z"/></g>
<g><path style="opacity:0.004" fill="#e5e5e5" d="M 117.5,159.5 C 119.833,161.167 121.833,163.167 123.5,165.5C 120.5,164.5 118.5,162.5 117.5,159.5 Z"/></g>
<g><path style="opacity:0.004" fill="#eeeeee" d="M 382.5,158.5 C 381.167,161.833 378.833,164.167 375.5,165.5C 377.5,162.833 379.833,160.5 382.5,158.5 Z"/></g>
<g><path style="opacity:0.004" fill="#e5e5e5" d="M 208.5,166.5 C 211.833,167.833 214.167,170.167 215.5,173.5C 212.833,171.5 210.5,169.167 208.5,166.5 Z"/></g>
<g><path style="opacity:0.192" fill="#e1e1e1" d="M 290.5,166.5 C 288.5,169.167 286.167,171.5 283.5,173.5C 284.833,170.167 287.167,167.833 290.5,166.5 Z"/></g>
<g><path style="opacity:0.757" fill="#5e5e5e" d="M 273.5,183.5 C 272.833,186.167 271.167,187.833 268.5,188.5C 269.833,186.5 271.5,184.833 273.5,183.5 Z"/></g>
<g><path style="opacity:0.788" fill="#575757" d="M 264.5,192.5 C 263.5,195.5 261.5,197.5 258.5,198.5C 260.167,196.167 262.167,194.167 264.5,192.5 Z"/></g>
<g><path style="opacity:0.004" fill="#e6e6e6" d="M 158.5,200.5 C 161.167,202.5 163.5,204.833 165.5,207.5C 162.167,206.167 159.833,203.833 158.5,200.5 Z"/></g>
<g><path style="opacity:0.004" fill="#eeeeee" d="M 340.5,200.5 C 339.167,203.833 336.833,206.167 333.5,207.5C 335.5,204.833 337.833,202.5 340.5,200.5 Z"/></g>
<g><path style="opacity:0.004" fill="#e4e4e4" d="M 199.5,241.5 C 202.167,243.5 204.5,245.833 206.5,248.5C 203.167,247.167 200.833,244.833 199.5,241.5 Z"/></g>
<g><path style="opacity:0.004" fill="#ededed" d="M 299.5,241.5 C 298.167,244.833 295.833,247.167 292.5,248.5C 294.5,245.833 296.833,243.5 299.5,241.5 Z"/></g>
<g><path style="opacity:0.004" fill="#e4e4e4" d="M 292.5,250.5 C 295.833,251.833 298.167,254.167 299.5,257.5C 296.833,255.5 294.5,253.167 292.5,250.5 Z"/></g>
<g><path style="opacity:0.188" fill="#e0e0e0" d="M 206.5,250.5 C 204.5,253.167 202.167,255.5 199.5,257.5C 200.833,254.167 203.167,251.833 206.5,250.5 Z"/></g>
<g><path style="opacity:0.761" fill="#626262" d="M 189.5,267.5 C 187.5,271.5 184.5,274.5 180.5,276.5C 183.167,273.167 186.167,270.167 189.5,267.5 Z"/></g>
<g><path style="opacity:0.004" fill="#e5e5e5" d="M 333.5,291.5 C 336.833,292.833 339.167,295.167 340.5,298.5C 337.833,296.5 335.5,294.167 333.5,291.5 Z"/></g>
<g><path style="opacity:0.192" fill="#dddddd" d="M 165.5,291.5 C 163.5,294.167 161.167,296.5 158.5,298.5C 159.833,295.167 162.167,292.833 165.5,291.5 Z"/></g>
<g><path style="opacity:0.757" fill="#626262" d="M 147.5,309.5 C 146.5,312.5 144.5,314.5 141.5,315.5C 143.167,313.167 145.167,311.167 147.5,309.5 Z"/></g>
<g><path style="opacity:0.004" fill="#e5e5e5" d="M 283.5,325.5 C 286.167,327.5 288.5,329.833 290.5,332.5C 287.167,331.167 284.833,328.833 283.5,325.5 Z"/></g>
<g><path style="opacity:0.004" fill="#ededed" d="M 215.5,325.5 C 214.167,328.833 211.833,331.167 208.5,332.5C 210.5,329.833 212.833,327.5 215.5,325.5 Z"/></g>
<g><path style="opacity:0.004" fill="#e5e5e5" d="M 375.5,333.5 C 378.833,334.833 381.167,337.167 382.5,340.5C 379.833,338.5 377.5,336.167 375.5,333.5 Z"/></g>
<g><path style="opacity:0.18" fill="#dedede" d="M 123.5,333.5 C 121.833,335.833 119.833,337.833 117.5,339.5C 118.5,336.5 120.5,334.5 123.5,333.5 Z"/></g>
<g><path style="opacity:0.753" fill="#606060" d="M 107.5,349.5 C 105.833,353.167 103.167,355.833 99.5,357.5C 101.833,354.5 104.5,351.833 107.5,349.5 Z"/></g>
<g><path style="opacity:0.792" fill="#5a5a5a" d="M 96.5,360.5 C 95.5,363.5 93.5,365.5 90.5,366.5C 92.1667,364.167 94.1667,362.167 96.5,360.5 Z"/></g>
<g><path style="opacity:0.004" fill="#e5e5e5" d="M 325.5,367.5 C 327.833,369.167 329.833,371.167 331.5,373.5C 328.5,372.5 326.5,370.5 325.5,367.5 Z"/></g>
<g><path style="opacity:0.004" fill="#ededed" d="M 173.5,367.5 C 172.5,370.5 170.5,372.5 167.5,373.5C 169.167,371.167 171.167,369.167 173.5,367.5 Z"/></g>
<g><path style="opacity:0.004" fill="#e7e7e7" d="M 417.5,375.5 C 420.5,376.5 422.5,378.5 423.5,381.5C 421.167,379.833 419.167,377.833 417.5,375.5 Z"/></g>
<g><path style="opacity:0.184" fill="#e2e2e2" d="M 81.5,375.5 C 79.8333,377.833 77.8333,379.833 75.5,381.5C 76.5,378.5 78.5,376.5 81.5,375.5 Z"/></g>
<g><path style="opacity:0.004" fill="#e8e8e8" d="M 367.5,409.5 C 369.833,411.167 371.833,413.167 373.5,415.5C 370.5,414.5 368.5,412.5 367.5,409.5 Z"/></g>
<g><path style="opacity:0.004" fill="#eeeeee" d="M 131.5,409.5 C 130.5,412.5 128.5,414.5 125.5,415.5C 127.167,413.167 129.167,411.167 131.5,409.5 Z"/></g>
<g><path style="opacity:0.004" fill="#e7e7e7" d="M 459.5,417.5 C 462.167,418.167 463.833,419.833 464.5,422.5C 462.5,421.167 460.833,419.5 459.5,417.5 Z"/></g>
<g><path style="opacity:0.184" fill="#e2e2e2" d="M 39.5,417.5 C 38.1667,419.5 36.5,421.167 34.5,422.5C 35.1667,419.833 36.8333,418.167 39.5,417.5 Z"/></g>
<g><path style="opacity:0.749" fill="#5f5f5f" d="M 25.5,431.5 C 24.5,434.5 22.5,436.5 19.5,437.5C 21.1667,435.167 23.1667,433.167 25.5,431.5 Z"/></g>
<g><path style="opacity:0.761" fill="#5d5d5d" d="M 17.5,439.5 C 16.5,442.5 14.5,444.5 11.5,445.5C 13.1667,443.167 15.1667,441.167 17.5,439.5 Z"/></g>
<g><path style="opacity:0.004" fill="#e6e6e6" d="M 409.5,451.5 C 411.5,452.833 413.167,454.5 414.5,456.5C 411.833,455.833 410.167,454.167 409.5,451.5 Z"/></g>
<g><path style="opacity:0.004" fill="#ededed" d="M 89.5,451.5 C 88.8333,454.167 87.1667,455.833 84.5,456.5C 85.8333,454.5 87.5,452.833 89.5,451.5 Z"/></g>
<g><path style="opacity:0.018" fill="#d6d6d6" d="M 8.5,448.5 C 4.72878,453.043 1.72878,458.043 -0.5,463.5C -0.5,462.5 -0.5,461.5 -0.5,460.5C 1.02856,455.463 4.02856,451.463 8.5,448.5 Z"/></g>
<g><path style="opacity:0.014" fill="#dadada" d="M 490.5,448.5 C 494.971,451.463 497.971,455.463 499.5,460.5C 499.5,461.5 499.5,462.5 499.5,463.5C 497.271,458.043 494.271,453.043 490.5,448.5 Z"/></g>
<g><path style="opacity:0.006" fill="#e5e5e5" d="M -0.5,475.5 C 1.2057,479.915 3.2057,484.248 5.5,488.5C 2.74361,485.982 0.743612,482.982 -0.5,479.5C -0.5,478.167 -0.5,476.833 -0.5,475.5 Z"/></g>
<g><path style="opacity:0.014" fill="#dddddd" d="M 499.5,475.5 C 499.5,476.833 499.5,478.167 499.5,479.5C 498.163,483.498 495.83,486.832 492.5,489.5C 495.38,485.073 497.713,480.407 499.5,475.5 Z"/></g>
<g><path style="opacity:0.004" fill="#c9c9c9" d="M 5.5,488.5 C 7.26441,489.326 8.59774,490.659 9.5,492.5C 7.29014,492.106 5.95681,490.773 5.5,488.5 Z"/></g>
<g><path style="opacity:0.008" fill="#e9e9e9" d="M 492.5,489.5 C 492.5,491.5 491.5,492.5 489.5,492.5C 490.167,491.167 491.167,490.167 492.5,489.5 Z"/></g>
<g><path style="opacity:0.051" fill="#d3d3d3" d="M 9.5,492.5 C 12.8413,494.503 16.1747,496.503 19.5,498.5C 15.2066,498.023 11.8733,496.023 9.5,492.5 Z"/></g>
<g><path style="opacity:0.022" fill="#e8e8e8" d="M 48.5,492.5 C 45.8318,495.83 42.4985,498.163 38.5,499.5C 37.1667,499.5 35.8333,499.5 34.5,499.5C 39.4066,497.713 44.0733,495.38 48.5,492.5 Z"/></g>
<g><path style="opacity:0.014" fill="#dadada" d="M 448.5,490.5 C 453.043,494.271 458.043,497.271 463.5,499.5C 462.5,499.5 461.5,499.5 460.5,499.5C 455.463,497.971 451.463,494.971 448.5,490.5 Z"/></g>
<g><path style="opacity:0.01" fill="#d5d5d5" d="M 488.5,493.5 C 485.982,496.256 482.982,498.256 479.5,499.5C 477.5,499.5 475.5,499.5 473.5,499.5C 478.749,498.302 483.749,496.302 488.5,493.5 Z"/></g>
</svg>
