<?xml version="1.0" standalone="no"?>
<!DOCTYPE svg PUBLIC "-//W3C//DTD SVG 20010904//EN"
 "http://www.w3.org/TR/2001/REC-SVG-20010904/DTD/svg10.dtd">
<svg version="1.0" xmlns="http://www.w3.org/2000/svg"
 width="500.000000pt" height="500.000000pt" viewBox="0 0 500.000000 500.000000"
 preserveAspectRatio="xMidYMid meet">

<g transform="translate(0.000000,500.000000) scale(0.100000,-0.100000)"
fill="#000000" stroke="none">
<path d="M1178 4901 c-31 -10 -76 -30 -100 -44 -68 -40 -164 -137 -191 -192
-50 -101 -57 -145 -57 -347 l0 -188 -203 0 c-285 0 -354 -21 -480 -144 -71
-71 -100 -117 -129 -206 -16 -51 -18 -123 -18 -1001 0 -920 1 -949 20 -1012
34 -109 137 -239 227 -286 82 -42 146 -53 366 -58 l217 -6 0 -461 c0 -396 2
-470 16 -517 52 -175 168 -291 343 -343 49 -14 184 -16 1311 -16 1127 0 1262
2 1311 16 175 52 291 168 343 343 14 47 16 121 16 517 l0 461 218 6 c219 5
283 16 365 58 90 47 193 177 227 286 19 63 20 92 20 1012 0 835 -2 953 -16
997 -42 133 -126 237 -236 294 -99 52 -151 60 -375 60 l-203 0 0 188 c0 205
-7 249 -60 352 -34 66 -128 158 -196 193 -119 60 -40 57 -1418 56 -1192 0
-1264 -1 -1318 -18z m2553 -366 c60 -32 69 -62 69 -242 l0 -163 -1300 0 -1300
0 0 160 c0 180 7 206 63 240 31 19 59 20 1235 20 1067 0 1206 -2 1233 -15z
m824 -789 c19 -8 44 -30 55 -48 20 -32 20 -48 20 -921 0 -987 4 -924 -66 -968
-27 -17 -46 -18 -170 -15 -76 2 -158 5 -181 5 l-43 1 0 164 c0 182 -14 251
-68 336 -59 93 -173 186 -267 218 -46 16 -147 17 -1305 20 -926 2 -1269 0
-1310 -8 -141 -30 -272 -137 -343 -279 l-42 -84 -3 -183 -4 -182 -30 -6 c-17
-3 -100 -6 -185 -6 -141 0 -158 2 -184 21 -62 44 -59 -6 -59 966 0 873 0 889
20 921 40 66 -114 61 2108 62 1738 0 2027 -2 2057 -14z m-829 -1592 c18 -9 43
-31 54 -49 20 -32 20 -48 20 -796 0 -740 -1 -765 -20 -796 -41 -67 46 -63
-1280 -63 -1326 0 -1239 -4 -1280 63 -19 31 -20 56 -20 796 0 747 0 764 20
796 43 69 -43 65 1278 65 1076 0 1197 -2 1228 -16z"/>
<path d="M3564 3468 c-2 -3 -12 -4 -23 -1 -38 10 -119 -53 -140 -110 -22 -56
-7 -177 21 -177 4 0 8 -7 8 -15 0 -8 10 -20 23 -27 58 -33 103 -38 367 -38
236 0 269 2 305 19 72 33 105 86 105 168 0 56 -22 104 -65 142 -28 25 -45 30
-107 35 -105 9 -489 12 -494 4z"/>
</g>
</svg>
