<?xml version="1.0" encoding="utf-8"?>
<svg version="1.1" xmlns="http://www.w3.org/2000/svg" width="777" height="358">
  <path d="M0 0 C9.508125 -0.0825 19.01625 -0.165 28.8125 -0.25 C31.7925708 -0.28641602 34.7726416 -0.32283203 37.84301758 -0.36035156 C40.2351815 -0.37204648 42.62735345 -0.3822364 45.01953125 -0.390625 C46.84599182 -0.4213208 46.84599182 -0.4213208 48.70935059 -0.45263672 C57.68967685 -0.45626477 66.6766934 0.54845294 73.5625 6.875 C78.160414 12.76976154 78.89259012 18.70109852 78 26 C76.19750306 32.10906147 72.40267454 36.66544603 67 40 C63.5625 40.875 63.5625 40.875 61 41 C61 41.66 61 42.32 61 43 C61.680625 43.165 62.36125 43.33 63.0625 43.5 C70.98337531 47.54470228 75.29391029 56.43536706 79.4375 63.9375 C79.97826172 64.89462891 80.51902344 65.85175781 81.07617188 66.83789062 C85 73.82736449 85 73.82736449 85 75 C57.49872287 78.17736049 57.49872287 78.17736049 50.40332031 73.16601562 C46.43748522 68.50513727 44.25398403 63.18844022 42.07324219 57.52734375 C40.38604948 53.55422752 38.37798936 49.74456321 35 47 C32.36 46.34 29.72 45.68 27 45 C27 54.9 27 64.8 27 75 C18.09 75 9.18 75 0 75 C0 50.25 0 25.5 0 0 Z M27 16 C27 20.62 27 25.24 27 30 C37.72992298 30.46432121 37.72992298 30.46432121 48 28 C50.29827312 26.12061828 50.29827312 26.12061828 50.3125 23.0625 C50.27159963 20.03154244 50.27159963 20.03154244 48.625 18.1875 C45.88818237 16.18751789 44.20371314 15.87884709 40.8671875 15.90234375 C40.06152344 15.90556641 39.25585938 15.90878906 38.42578125 15.91210938 C37.58402344 15.92048828 36.74226563 15.92886719 35.875 15.9375 C34.60076172 15.94426758 34.60076172 15.94426758 33.30078125 15.95117188 C31.20049091 15.96297126 29.1002367 15.98090694 27 16 Z " fill="#B1B1B1" transform="translate(273,14)"/>
  <path d="M0 0 C0.68513672 0.1659668 1.37027344 0.33193359 2.07617188 0.50292969 C3.71631217 0.93281198 5.33088389 1.45811104 6.9375 2 C7.2675 2.66 7.5975 3.32 7.9375 4 C6.71417969 4.08636719 5.49085938 4.17273437 4.23046875 4.26171875 C-23.01298417 6.42744779 -47.9941652 14.51716588 -66.74414062 35.43164062 C-78.82856875 49.80763438 -85.01250964 67.70005784 -88.0625 86 C-104.5625 86.33 -121.0625 86.66 -138.0625 87 C-137.35191867 80.60476802 -136.53757509 75.38402827 -134.5 69.4375 C-134.23823975 68.66591553 -133.97647949 67.89433105 -133.70678711 67.09936523 C-130.8690806 59.02687823 -127.20765023 51.47424362 -123.0625 44 C-122.51980469 43.01515625 -121.97710938 42.0303125 -121.41796875 41.015625 C-109.16978297 20.39337547 -88.94461755 6.155044 -66.01953125 -0.26171875 C-44.29326094 -5.6861112 -21.72923805 -5.29957435 0 0 Z " fill="#F2822C" transform="translate(704.0625,4)"/>
  <path d="M0 0 C12.74625 -0.0928125 12.74625 -0.0928125 25.75 -0.1875 C29.73658691 -0.22846802 29.73658691 -0.22846802 33.80371094 -0.27026367 C35.94726103 -0.27903835 38.09081618 -0.28667995 40.234375 -0.29296875 C41.31734863 -0.30831665 42.40032227 -0.32366455 43.51611328 -0.33947754 C53.04477455 -0.34269234 63.57059392 0.27148881 70.6640625 7.34765625 C74.86689362 12.54589474 75.55661885 17.81430151 75.34375 24.2890625 C74.47226905 31.16187814 71.0825642 35.58322494 65.75 39.8125 C63.60664249 41.26692117 61.4774856 42.24924679 59 43 C59.50789063 43.40089844 60.01578125 43.80179688 60.5390625 44.21484375 C68.43383568 50.73468452 72.86667792 58.65462038 77.875 67.4375 C78.28097412 68.1483374 78.68694824 68.8591748 79.10522461 69.59155273 C82 74.75888531 82 74.75888531 82 77 C74.39610691 77.59714588 66.80240631 77.97812986 59.17578125 77.8046875 C57.30660034 77.77737549 57.30660034 77.77737549 55.3996582 77.74951172 C50.97293841 76.77356703 49.43248167 74.96968204 46.6875 71.4375 C45.97812982 69.63237086 45.27143485 67.82297071 44.68847656 65.97314453 C43.43038273 62.36750113 41.47909477 59.16306598 39.5625 55.875 C39.23789795 55.23618896 38.9132959 54.59737793 38.57885742 53.93920898 C35.21639812 47.88807955 33.57267029 48.52422343 26 46 C26 56.23 26 66.46 26 77 C17.42 77 8.84 77 0 77 C0 51.59 0 26.18 0 0 Z M26 16 C26 20.95 26 25.9 26 31 C36.18147457 31.25753249 36.18147457 31.25753249 46 29 C48.31361802 25.52957297 48.51020728 24.08165827 48 20 C44.63587177 16.51572433 41.25482098 16.03548702 36.546875 15.90234375 C33.03125 15.93489583 29.515625 15.96744792 26 16 Z " fill="#F2822B" transform="translate(363,101)"/>
  <path d="M0 0 C7.74365933 7.88224831 10.36641971 17.26162799 10.4375 28.0625 C10.26255426 39.86769267 7.56444811 49.40950249 -0.96875 57.9765625 C-8.53216027 64.41642269 -18.12221266 67.57849887 -28 68 C-29.33611328 68.05994141 -29.33611328 68.05994141 -30.69921875 68.12109375 C-44.34655969 68.42436799 -57.58152058 66.84913765 -68.3125 57.875 C-76.70726425 49.82287919 -79.9075678 39.96140723 -80.25 28.5 C-79.95748616 18.70938981 -77.65520871 9.15271193 -70.953125 1.734375 C-52.87947293 -15.0928183 -18.95836062 -16.24463902 0 0 Z M-49.375 15 C-53.13017179 21.93262485 -53.07178046 30.65926349 -51.5390625 38.296875 C-49.64388672 43.33581296 -45.73348716 46.63325642 -41 49 C-34.54626762 49.50238635 -28.44057496 49.94441685 -23 46 C-18.74527669 41.98165021 -17.54058908 37.67202695 -17 32 C-16.91844998 24.51552077 -17.1061972 17.89765979 -22 12 C-26.76584175 8.32380798 -31.66225034 7.34330647 -37.60546875 7.6171875 C-42.88394404 8.46105468 -46.03499551 10.78104696 -49.375 15 Z " fill="#B1B1B1" transform="translate(523,23)"/>
  <path d="M0 0 C7.39629356 6.1965798 11.80793169 14.47658812 12.65625 24.06494141 C13.44767699 36.73625275 12.74592655 48.63051621 4.10546875 58.640625 C-5.70053835 68.51051489 -16.53685995 71.2762643 -30.14453125 71.328125 C-42.66851709 71.33321295 -54.41069587 69.11923691 -63.76953125 60.328125 C-71.42692404 52.23531184 -73.90855527 42.72933014 -73.83203125 31.765625 C-73.8263916 30.92475342 -73.82075195 30.08388184 -73.81494141 29.2175293 C-73.57216826 16.8012453 -69.73629984 8.92220391 -60.83203125 0.328125 C-45.2204432 -12.8216357 -16.0071446 -10.99480639 0 0 Z M-44.26953125 16.890625 C-48.25577513 23.86655179 -48.48330756 31.82999856 -47.0546875 39.609375 C-45.48263366 45.19063125 -43.29142286 47.82917752 -38.51953125 51.078125 C-34.33810381 53.16883872 -29.07294512 52.51263377 -24.51953125 52.078125 C-20.39975214 50.05437386 -18.01550659 47.87008754 -15.51953125 44.078125 C-12.68265942 35.02137377 -12.52368712 25.79230906 -16.51953125 17.078125 C-19.37710416 13.73285965 -22.6878879 11.24538585 -27.12890625 10.83984375 C-34.6951147 10.66104032 -38.84657695 11.27399376 -44.26953125 16.890625 Z " fill="#F1822B" transform="translate(520.51953125,107.921875)"/>
  <path d="M0 0 C4.19570752 3.58542279 7.07475821 7.72085545 9.0625 12.875 C9.0625 13.865 9.0625 14.855 9.0625 15.875 C0.53051624 18.17207255 -8.06666575 20.05926065 -16.9375 19.875 C-17.06125 19.111875 -17.185 18.34875 -17.3125 17.5625 C-19.58475278 13.80454348 -21.98376188 13.30777194 -26.13671875 12.25 C-31.91631099 11.47616338 -36.81567505 12.7012245 -41.875 15.5 C-47.52020224 22.00053591 -47.41207444 29.02402974 -47.22265625 37.30078125 C-46.75669244 43.14128653 -45.75883389 47.09919945 -41.4375 51.3125 C-35.13772595 55.24985878 -26.93105279 54.74668919 -19.859375 53.203125 C-17.51961098 52.49451075 -15.22297561 51.74172664 -12.9375 50.875 C-12.9375 48.565 -12.9375 46.255 -12.9375 43.875 C-18.5475 43.875 -24.1575 43.875 -29.9375 43.875 C-29.9375 38.595 -29.9375 33.315 -29.9375 27.875 C-16.7375 27.875 -3.5375 27.875 10.0625 27.875 C10.371875 35.856875 10.371875 35.856875 10.6875 44 C10.77854004 45.66820801 10.86958008 47.33641602 10.96337891 49.05517578 C11.29722542 59.51218746 11.29722542 59.51218746 7.96557617 63.18945312 C5.36629088 64.76825328 2.92439066 65.86007778 0.0625 66.875 C-1.5847928 67.62178899 -3.23084806 68.37132117 -4.875 69.125 C-20.41431195 74.88030072 -40.42240339 75.38234858 -55.70703125 68.65625 C-65.43835056 63.40396372 -70.68214938 55.24919427 -73.9375 44.875 C-76.86659457 33.40271292 -74.94236869 20.88392593 -69.3125 10.5625 C-63.48187868 1.61551211 -54.63983251 -3.37181354 -44.36328125 -5.7109375 C-30.0439284 -7.44166886 -12.26303838 -8.58014536 0 0 Z " fill="#F1822C" transform="translate(241.9375,106.125)"/>
  <path d="M0 0 C9.24 0 18.48 0 28 0 C28.05607422 5.32705078 28.05607422 5.32705078 28.11328125 10.76171875 C28.15950108 14.20375709 28.21073322 17.64568689 28.26245117 21.08764648 C28.29569167 23.47852983 28.32372629 25.86949148 28.34643555 28.26049805 C28.37999683 31.69874419 28.43231524 35.13627329 28.48828125 38.57421875 C28.49467117 39.64210129 28.5010611 40.70998383 28.50764465 41.81022644 C28.56208612 48.92587939 28.56208612 48.92587939 32 55 C36.44438109 57.82824251 41.91041586 57.53662831 47 57 C51.29953883 55.26188856 53.09788918 53.18517336 55 49 C55.47629534 45.2683634 55.48875924 41.55136229 55.51171875 37.79296875 C55.52966995 36.71243729 55.54762115 35.63190582 55.56611633 34.51863098 C55.62020263 31.07496008 55.65411045 27.63142768 55.6875 24.1875 C55.72067447 21.84959011 55.75516424 19.51169849 55.79101562 17.17382812 C55.87839903 11.44919898 55.93848434 5.72519929 56 0 C64.91 0 73.82 0 83 0 C83.09207434 7.38385024 83.17164446 14.76569027 83.21972656 22.1496582 C83.23978062 24.65884164 83.26703085 27.16797869 83.30175781 29.67700195 C83.35054754 33.29389933 83.37303182 36.9101761 83.390625 40.52734375 C83.41127014 41.64020248 83.43191528 42.75306122 83.45318604 43.89964294 C83.45598567 53.726022 80.78842064 61.01319074 74.03515625 68.2109375 C63.85020917 77.16430748 49.92120978 77.69168207 37 77 C25.65232126 76.17280781 15.4255162 74.1777069 7 66 C0.1937245 57.79243249 -0.44921328 47.44960936 -0.29296875 37.20703125 C-0.28872391 36.13498947 -0.28447906 35.06294769 -0.28010559 33.9584198 C-0.26347989 30.57617739 -0.22585846 27.19455851 -0.1875 23.8125 C-0.17243233 21.50196181 -0.1587476 19.19141416 -0.14648438 16.88085938 C-0.11619708 11.25348005 -0.05744444 5.62742764 0 0 Z " fill="#B0B0B0" transform="translate(86,14)"/>
  <path d="M0 0 C23.76 0 47.52 0 72 0 C72 5.61 72 11.22 72 17 C57.15 17 42.3 17 27 17 C27 20.63 27 24.26 27 28 C40.86 28 54.72 28 69 28 C69 33.28 69 38.56 69 44 C55.14 44 41.28 44 27 44 C27 48.29 27 52.58 27 57 C42.18 57 57.36 57 73 57 C73 62.94 73 68.88 73 75 C48.91 75 24.82 75 0 75 C0 50.25 0 25.5 0 0 Z " fill="#B0B0B0" transform="translate(186,14)"/>
  <path d="M0 0 C8.91 0 17.82 0 27 0 C27.03738281 3.62355469 27.07476562 7.24710937 27.11328125 10.98046875 C27.15949946 14.49200459 27.2107322 18.00343396 27.26245117 21.51489258 C27.29569417 23.95427983 27.32372801 26.39374388 27.34643555 28.83325195 C27.37999217 32.34099032 27.43231049 35.84802525 27.48828125 39.35546875 C27.49467117 40.44522507 27.5010611 41.53498138 27.50764465 42.65776062 C27.54569543 49.85310066 27.54569543 49.85310066 31 56 C35.42939967 59.09964332 40.82990691 58.49092872 46 58 C49.39243511 56.68456598 50.5352496 55.96689798 52.10116577 52.70906067 C53.02446779 49.92625478 53.27446982 47.76406996 53.31884766 44.8425293 C53.33871735 43.84186935 53.35858704 42.84120941 53.37905884 41.81022644 C53.39638565 40.20840263 53.39638565 40.20840263 53.4140625 38.57421875 C53.43342865 37.47149124 53.4527948 36.36876373 53.4727478 35.23262024 C53.53242923 31.71765834 53.57888375 28.20266349 53.625 24.6875 C53.66319026 22.30141817 53.7022426 19.91534997 53.7421875 17.52929688 C53.83974065 11.68626966 53.9194016 5.84338409 54 0 C62.58 0 71.16 0 80 0 C80.09212204 7.5079464 80.17167804 15.01391019 80.21972656 22.52197266 C80.23976872 25.07282173 80.26700993 27.62362527 80.30175781 30.17431641 C80.3506003 33.8533048 80.37304381 37.53168259 80.390625 41.2109375 C80.41127014 42.34050873 80.43191528 43.47007996 80.45318604 44.63388062 C80.45562082 53.34041767 78.64730555 59.95117975 73.875 67.25 C62.90705924 77.74107377 51.07402129 78.47589572 36.63671875 78.1796875 C25.46717623 77.81287909 16.6617805 76.01391178 8.15234375 68.33203125 C0.07927108 59.6638918 -0.15353704 48.96447799 -0.09765625 37.6953125 C-0.0962413 36.61619598 -0.09482635 35.53707947 -0.09336853 34.42526245 C-0.08778844 30.99181298 -0.07523955 27.55842964 -0.0625 24.125 C-0.05748243 21.79166761 -0.05291997 19.4583342 -0.04882812 17.125 C-0.03867809 11.41662093 -0.01909868 5.70838416 0 0 Z " fill="#F1822C" transform="translate(266,101)"/>
  <path d="M0 0 C22.77 0 45.54 0 69 0 C69 5.61 69 11.22 69 17 C55.14 17 41.28 17 27 17 C27 20.63 27 24.26 27 28 C39.87 28 52.74 28 66 28 C66 33.61 66 39.22 66 45 C53.13 45 40.26 45 27 45 C27 49.62 27 54.24 27 59 C41.52 59 56.04 59 71 59 C71 64.94 71 70.88 71 77 C47.57 77 24.14 77 0 77 C0 51.59 0 26.18 0 0 Z " fill="#F1822C" transform="translate(87,101)"/>
  <path d="M0 0 C5.11390159 3.70663629 7.49597902 9.42264167 8.77734375 15.40234375 C8.85984375 16.22734375 8.94234375 17.05234375 9.02734375 17.90234375 C6.10783945 18.87551185 3.97289424 19.09529835 0.921875 19.21875 C-0.06103516 19.26064453 -1.04394531 19.30253906 -2.05664062 19.34570312 C-3.59288086 19.40467773 -3.59288086 19.40467773 -5.16015625 19.46484375 C-6.19591797 19.50802734 -7.23167969 19.55121094 -8.29882812 19.59570312 C-10.85663815 19.70178741 -13.4145447 19.80384521 -15.97265625 19.90234375 C-16.46185547 19.05349609 -16.46185547 19.05349609 -16.9609375 18.1875 C-17.39792969 17.45402344 -17.83492187 16.72054687 -18.28515625 15.96484375 C-18.71441406 15.23394531 -19.14367188 14.50304687 -19.5859375 13.75 C-20.92375879 11.60256963 -20.92375879 11.60256963 -23.97265625 10.90234375 C-29.43554623 10.47736462 -29.43554623 10.47736462 -34.47265625 12.15234375 C-36.40651717 14.02436713 -36.40651717 14.02436713 -35.97265625 17.90234375 C-34.94269531 18.13308594 -33.91273437 18.36382812 -32.8515625 18.6015625 C2.39816231 26.61115523 2.39816231 26.61115523 10.02734375 37.90234375 C12.09772537 44.1134886 12.24988445 52.14511452 9.58984375 58.21484375 C5.36143532 65.24233944 -0.96968653 70.23114296 -8.83203125 72.4296875 C-9.5384375 72.58566406 -10.24484375 72.74164063 -10.97265625 72.90234375 C-11.689375 73.08410156 -12.40609375 73.26585937 -13.14453125 73.453125 C-25.84724867 75.47082183 -40.82394648 75.05077782 -52.41015625 69.15234375 C-57.80366495 64.41658002 -61.72245533 59.77795766 -63.97265625 52.90234375 C-64.16015625 49.46484375 -64.16015625 49.46484375 -63.97265625 46.90234375 C-61.05315195 45.92917565 -58.91820674 45.70938915 -55.8671875 45.5859375 C-54.88427734 45.54404297 -53.90136719 45.50214844 -52.88867188 45.45898438 C-51.86451172 45.41966797 -50.84035156 45.38035156 -49.78515625 45.33984375 C-48.23151367 45.27506836 -48.23151367 45.27506836 -46.64648438 45.20898438 C-44.08867435 45.10290009 -41.5307678 45.00084229 -38.97265625 44.90234375 C-38.70928467 45.52810303 -38.44591309 46.1538623 -38.17456055 46.79858398 C-37.6472937 48.02363647 -37.6472937 48.02363647 -37.109375 49.2734375 C-36.76350342 50.08482178 -36.41763184 50.89620605 -36.0612793 51.73217773 C-34.51066633 54.82331894 -33.25536465 55.80810762 -29.97265625 56.90234375 C-25.58275712 57.45407971 -22.08171228 57.36445043 -17.97265625 55.65234375 C-15.92627321 54.04216507 -15.92627321 54.04216507 -14.84765625 52.02734375 C-15.01214362 49.2310585 -16.23078865 48.01815455 -18.20703125 46.12402344 C-21.85366496 43.60082721 -26.27316679 42.94697614 -30.53515625 41.96484375 C-42.2820447 38.99446569 -52.63468697 36.21516543 -59.97265625 25.90234375 C-62.05444642 21.73876342 -61.30032494 16.4480021 -60.97265625 11.90234375 C-58.69358294 5.30502629 -54.00479297 1.00319652 -47.8984375 -2.26000977 C-34.04124341 -8.28739731 -13.10030696 -7.28947773 0 0 Z " fill="#F2822C" transform="translate(63.97265625,105.09765625)"/>
  <path d="M0 0 C13.0246875 -0.12375 13.0246875 -0.12375 26.3125 -0.25 C29.03153564 -0.28641602 31.75057129 -0.32283203 34.55200195 -0.36035156 C36.73908705 -0.37204847 38.92618095 -0.38223791 41.11328125 -0.390625 C42.22296265 -0.41108887 43.33264404 -0.43155273 44.47595215 -0.45263672 C52.39865168 -0.45613421 60.79073856 0.32756865 67.00630188 5.75042725 C71.97554905 11.13758291 73.29043222 16.13306446 73.3125 23.4375 C73.32925781 24.71496094 73.34601563 25.99242188 73.36328125 27.30859375 C72.72398237 33.80469532 69.86054375 37.80225767 65 42 C53.79993288 49.84004698 40.0428316 48.17507157 27 48 C27 56.91 27 65.82 27 75 C18.09 75 9.18 75 0 75 C0 50.25 0 25.5 0 0 Z M27 16 C27 21.28 27 26.56 27 32 C36.45634329 32.23635269 36.45634329 32.23635269 44.9375 28.625 C46.25060831 26.6167167 46.85780889 25.41724882 47 23 C45.78409584 20.31221185 44.77508412 18.52268952 42.30859375 16.859375 C39.20792811 15.7051509 36.54793664 15.80904127 33.25 15.875 C31.1875 15.91625 29.125 15.9575 27 16 Z " fill="#B1B1B1" transform="translate(0,14)"/>
  <path d="M0 0 C3.67202569 3.06863591 7.06111979 6.38084833 10.42382812 9.78271484 C11.09285156 10.44142578 11.761875 11.10013672 12.45117188 11.77880859 C24.97787346 24.98723543 33.53257184 46.56439342 33.42382812 64.78271484 C18.07827187 65.54251589 2.78787727 65.9188137 -12.57617188 65.78271484 C-13.92509353 63.08487154 -13.98710732 60.59593614 -14.32617188 57.59521484 C-17.35591607 35.96682194 -28.04299882 16.09594718 -45.57617188 2.78271484 C-52.59639926 -1.97602138 -59.72137649 -6.02211415 -67.57617188 -9.21728516 C-67.57617188 -9.87728516 -67.57617188 -10.53728516 -67.57617188 -11.21728516 C-45.02338361 -14.31656403 -19.09437166 -14.74667551 0 0 Z " fill="#F2822C" transform="translate(743.576171875,25.21728515625)"/>
  <path d="M0 0 C0.07423798 6.17469663 0.12864413 12.34913261 0.16479492 18.52416992 C0.17986772 20.62415086 0.20032941 22.7241004 0.22631836 24.82397461 C0.26276754 27.84496824 0.27974159 30.86554511 0.29296875 33.88671875 C0.30845261 34.82335861 0.32393646 35.75999847 0.33988953 36.72502136 C0.34212516 45.41265382 0.34212516 45.41265382 -3 49 C-8.20564226 51.29649642 -13.00988988 51.27232872 -18.58544922 51.22705078 C-20.00590797 51.22748886 -20.00590797 51.22748886 -21.45506287 51.22793579 C-24.57169901 51.22654725 -27.68809333 51.21100832 -30.8046875 51.1953125 C-32.97087473 51.19158068 -35.13706365 51.18873451 -37.30325317 51.18673706 C-42.9947173 51.1791139 -48.68607877 51.15947666 -54.37750244 51.1373291 C-60.18915417 51.11684233 -66.00082254 51.10772928 -71.8125 51.09765625 C-83.20837835 51.07622958 -94.60418062 51.04210948 -106 51 C-106 50.34 -106 49.68 -106 49 C-103.85018277 47.2161091 -101.70178982 45.5657035 -99.4375 43.9375 C-98.7563916 43.44507813 -98.0752832 42.95265625 -97.37353516 42.4453125 C-90.4829221 37.53092917 -83.3788259 33.13762735 -76 29 C-75.2560498 28.57750977 -74.51209961 28.15501953 -73.74560547 27.71972656 C-54.98372645 17.15628326 -35.02267183 9.42805349 -14.5625 2.8125 C-13.66345947 2.52084961 -12.76441895 2.22919922 -11.83813477 1.92871094 C-10.58987915 1.54054199 -10.58987915 1.54054199 -9.31640625 1.14453125 C-8.59912354 0.92128174 -7.88184082 0.69803223 -7.14282227 0.46801758 C-4.71193975 -0.06291575 -2.48075738 -0.0795689 0 0 Z " fill="#B1B1B1" transform="translate(777,117)"/>
  <path d="M0 0 C0.80873194 -0.00427212 1.61746388 -0.00854425 2.45070285 -0.01294583 C5.15818595 -0.02117588 7.86411678 0.00630835 10.57145691 0.03364563 C12.51305606 0.0350561 14.45465789 0.03426414 16.39625549 0.03143311 C21.66668587 0.02999752 26.9365482 0.05941074 32.20684648 0.09430289 C37.71480323 0.1255424 43.22277276 0.12849524 48.73080444 0.13442993 C59.160766 0.14997541 69.59046577 0.19101358 80.02031201 0.24117738 C91.89440932 0.29704879 103.76851908 0.32455183 115.6427151 0.34965456 C140.06857044 0.40192867 164.49419335 0.48988482 188.91984558 0.60127258 C188.91984558 0.93127258 188.91984558 1.26127258 188.91984558 1.60127258 C187.05126892 1.70617004 187.05126892 1.70617004 185.14494324 1.81318665 C77.7014024 6.9507892 77.7014024 6.9507892 -13.08015442 58.60127258 C-13.20695696 51.14499574 -13.29450735 43.68899704 -13.35481262 36.23188782 C-13.37995281 33.69532378 -13.41406978 31.15883216 -13.45735168 28.62251282 C-13.51802103 24.97592807 -13.54637016 21.33030126 -13.56843567 17.68330383 C-13.5942421 16.54979996 -13.62004852 15.41629608 -13.64663696 14.2484436 C-13.64701462 13.18772141 -13.64739227 12.12699921 -13.64778137 11.03413391 C-13.65888443 10.10369766 -13.66998749 9.17326141 -13.681427 8.21463013 C-12.02432372 1.01223392 -6.51929623 -0.1262691 0 0 Z " fill="#B1B1B1" transform="translate(579.0801544189453,99.39872741699219)"/>
  <path d="M0 0 C27.06 0 54.12 0 82 0 C82 6.27 82 12.54 82 19 C73.09 19 64.18 19 55 19 C55 37.48 55 55.96 55 75 C45.76 75 36.52 75 27 75 C27 56.52 27 38.04 27 19 C18.09 19 9.18 19 0 19 C0 12.73 0 6.46 0 0 Z " fill="#B1B1B1" transform="translate(358,14)"/>
  <path d="M0 0 C0.38218767 1.65614657 0.71395102 3.32457024 1 5 C-0.58333066 6.58333066 -2.43610827 6.52591317 -4.6171875 6.91015625 C-29.49289612 11.47127899 -52.97355608 18.50765486 -76 29 C-76.87205078 29.39413086 -77.74410156 29.78826172 -78.64257812 30.19433594 C-88.54530283 34.73025217 -97.84422452 39.93926689 -106.9375 45.9375 C-107.75307373 46.47407227 -108.56864746 47.01064453 -109.40893555 47.56347656 C-110.61223511 48.38090332 -110.61223511 48.38090332 -111.83984375 49.21484375 C-112.67990967 49.78533447 -113.51997559 50.3558252 -114.38549805 50.94360352 C-117.13439231 52.98494751 -117.13439231 52.98494751 -119.57739258 55.86694336 C-125.49869231 62.32222126 -130.36835191 64.61365925 -139.20936584 65.03889465 C-145.08703786 65.09933525 -150.94011877 64.91871485 -156.8125 64.6875 C-159.25835303 64.63224022 -161.7043265 64.58206477 -164.15039062 64.53710938 C-170.10291725 64.41673485 -176.05088922 64.23340696 -182 64 C-171.67168135 42.76547842 -136.64160787 31.2256676 -116 24 C-81.26123095 12.1115765 -37.3948097 -1.52631876 0 0 Z " fill="#B1B1B1" transform="translate(776,104)"/>
  <path d="M0 0 C4.95 0 9.9 0 15 0 C15.06058594 2.35898438 15.12117188 4.71796875 15.18359375 7.1484375 C15.24537144 9.42874395 15.30876397 11.70900016 15.37231445 13.98925781 C15.41567241 15.57612657 15.45734687 17.16304224 15.49731445 18.75 C15.55499632 21.02878979 15.61869638 23.30734322 15.68359375 25.5859375 C15.70030624 26.29744965 15.71701874 27.00896179 15.73423767 27.74203491 C15.79721937 31.49660817 15.79721937 31.49660817 17 35 C19.31 35 21.62 35 24 35 C26.30088444 31.33473146 26.30912189 28.09570961 26.4140625 23.828125 C26.43342865 23.1457074 26.4527948 22.46328979 26.4727478 21.76019287 C26.53231098 19.59025392 26.57883446 17.42026123 26.625 15.25 C26.66320131 13.77471703 26.7022543 12.29945585 26.7421875 10.82421875 C26.83799235 7.21634582 26.92210916 3.60830917 27 0 C30.96 0 34.92 0 39 0 C39.07440448 5.15947346 39.12872191 10.31863151 39.16479492 15.47851562 C39.17983995 17.23215173 39.20028104 18.98575047 39.22631836 20.73925781 C39.26289121 23.26637009 39.2797692 25.79298296 39.29296875 28.3203125 C39.30845261 29.09867462 39.32393646 29.87703674 39.33988953 30.6789856 C39.34158862 36.23019488 38.28785171 40.34114531 34.5546875 44.6796875 C27.71138485 49.54957264 19.02852007 49.04523019 11 48 C6.85660049 46.9028745 4.0662008 45.32293338 1.32299805 41.91918945 C-0.5109103 37.87267864 -0.37513195 34.37028162 -0.29296875 29.98046875 C-0.28872391 29.12189774 -0.28447906 28.26332672 -0.28010559 27.3787384 C-0.26336995 24.64800086 -0.22572766 21.91801288 -0.1875 19.1875 C-0.17244653 17.3313909 -0.15875928 15.47527018 -0.14648438 13.61914062 C-0.11348323 9.07914015 -0.06173659 4.53969698 0 0 Z " fill="#305BA7" transform="translate(248,199)"/>
  <path d="M0 0 C5.61 0 11.22 0 17 0 C18.99924033 6.35206962 20.99292636 12.70584517 22.98144531 19.0612793 C23.65894965 21.22386926 24.33797951 23.3859819 25.01855469 25.54760742 C25.99553783 28.65159395 26.9670536 31.75724578 27.9375 34.86328125 C28.24373291 35.83211746 28.54996582 36.80095367 28.86547852 37.79914856 C29.14576904 38.6998558 29.42605957 39.60056305 29.71484375 40.52856445 C29.96355225 41.32132278 30.21226074 42.11408112 30.46850586 42.93086243 C31 45 31 45 31 48 C25.72 48 20.44 48 15 48 C14.34 45.03 13.68 42.06 13 39 C9.04 39 5.08 39 1 39 C0.34 41.97 -0.32 44.94 -1 48 C-5.29 48 -9.58 48 -14 48 C-12.48728682 39.08676785 -9.87578532 30.59337691 -7.2043457 21.97460938 C-6.43113001 19.47944406 -5.66519392 16.98213028 -4.90039062 14.484375 C-4.41187449 12.8957053 -3.92295698 11.30715896 -3.43359375 9.71875 C-3.20441757 8.97298706 -2.97524139 8.22722412 -2.73912048 7.4588623 C-1.11698939 2.23397878 -1.11698939 2.23397878 0 0 Z M6 18 C5.34 20.97 4.68 23.94 4 27 C5.98 27 7.96 27 10 27 C9.34 24.03 8.68 21.06 8 18 C7.34 18 6.68 18 6 18 Z " fill="#315BA6" transform="translate(624,199)"/>
  <path d="M0 0 C5.28 0 10.56 0 16 0 C18.17241915 5.60624296 20.03027288 11.22223535 21.6875 17 C21.91244141 17.77472656 22.13738281 18.54945313 22.36914062 19.34765625 C22.91553367 21.23096846 23.45816894 23.11537024 24 25 C26.17241915 19.39375704 28.03027288 13.77776465 29.6875 8 C29.91244141 7.22527344 30.13738281 6.45054687 30.36914062 5.65234375 C30.91553367 3.76903154 31.45816894 1.88462976 32 0 C36.29 0 40.58 0 45 0 C44.36300561 5.61819689 43.00184771 10.75672351 41.3125 16.14453125 C40.91865112 17.42102791 40.91865112 17.42102791 40.5168457 18.72331238 C39.96455044 20.50991165 39.40973959 22.29573503 38.85253906 24.08081055 C37.99773089 26.81977063 37.15055913 29.56100272 36.3046875 32.30273438 C35.76606493 34.04180298 35.22701746 35.78074006 34.6875 37.51953125 C34.43331299 38.34032669 34.17912598 39.16112213 33.91723633 40.00679016 C32.11726225 45.76547549 32.11726225 45.76547549 31 48 C25.72 48 20.44 48 15 48 C13.34158366 43.09417307 11.68617524 38.18751844 10.0378418 33.27832031 C9.47798428 31.61369659 8.91650267 29.94961807 8.35327148 28.28613281 C5.18477113 18.92427043 2.22338941 9.64248881 0 0 Z " fill="#315BA7" transform="translate(374,199)"/>
  <path d="M0 0 C11.55 0 23.1 0 35 0 C35 3.96 35 7.92 35 12 C28.4 12 21.8 12 15 12 C15 14.31 15 16.62 15 19 C19.95 19 24.9 19 30 19 C30 22.63 30 26.26 30 30 C25.05 30 20.1 30 15 30 C15 35.94 15 41.88 15 48 C10.05 48 5.1 48 0 48 C0 32.16 0 16.32 0 0 Z " fill="#315BA6" transform="translate(4,199)"/>
  <path d="M0 0 C5.28 0 10.56 0 16 0 C16 11.55 16 23.1 16 35 C21.94 35 27.88 35 34 35 C34 39.29 34 43.58 34 48 C22.78 48 11.56 48 0 48 C0 32.16 0 16.32 0 0 Z " fill="#325BA5" transform="translate(126,199)"/>
  <path d="M0 0 C4.95 0 9.9 0 15 0 C15 11.55 15 23.1 15 35 C20.94 35 26.88 35 33 35 C33 39.29 33 43.58 33 48 C22.11 48 11.22 48 0 48 C0 32.16 0 16.32 0 0 Z " fill="#325AA6" transform="translate(743,199)"/>
  <path d="M0 0 C4.95 0 9.9 0 15 0 C15 15.84 15 31.68 15 48 C10.05 48 5.1 48 0 48 C0 32.16 0 16.32 0 0 Z " fill="#325BA6" transform="translate(507,199)"/>
</svg>