<?xml version="1.0" encoding="UTF-8"?>
<svg version="1.1" xmlns="http://www.w3.org/2000/svg" width="512" height="512">
<path d="M0 0 C2.47167969 1.16064453 2.47167969 1.16064453 4.921875 2.6328125 C6.31575439 3.45930298 6.31575439 3.45930298 7.73779297 4.30249023 C8.73182129 4.90391846 9.72584961 5.50534668 10.75 6.125 C12.91360121 7.41093269 15.07768002 8.6960621 17.2421875 9.98046875 C18.35819336 10.6461084 19.47419922 11.31174805 20.62402344 11.99755859 C26.01253101 15.19372139 31.44352595 18.31510214 36.875 21.4375 C39.05998436 22.69646096 41.24487972 23.95557638 43.4296875 25.21484375 C44.51475586 25.83987793 45.59982422 26.46491211 46.71777344 27.10888672 C53.22217941 30.85651605 59.72375795 34.60904961 66.2253418 38.36157227 C71.77686292 41.56532462 77.33020797 44.76584577 82.88671875 47.9609375 C102.4218588 59.1997995 102.4218588 59.1997995 111.0625 64.375 C111.66989014 64.73835449 112.27728027 65.10170898 112.90307617 65.47607422 C116.8696895 67.8696895 116.8696895 67.8696895 118 69 C118.12480738 70.80345545 118.17967822 72.61177558 118.20773315 74.41932678 C118.2278949 75.59553589 118.24805664 76.771745 118.26882935 77.9835968 C118.29407181 79.93703255 118.29407181 79.93703255 118.31982422 81.92993164 C118.34081039 83.30624779 118.36205671 84.68256 118.38354492 86.05886841 C118.5715914 98.64510176 118.67417064 111.2326611 118.75568962 123.81998539 C118.81723413 133.12487643 118.92067771 142.42734544 119.07838428 151.73111254 C119.18552828 158.27212332 119.24274941 164.81246857 119.26382077 171.3543157 C119.27788265 175.26162215 119.31421805 179.16576092 119.405056 183.07209969 C119.48976303 186.75295264 119.51243958 190.42912742 119.48869324 194.1108284 C119.49160069 196.09699857 119.55896884 198.08275085 119.62857056 200.06770325 C119.56834004 203.79690799 119.3741473 206.5273981 118 210 C114.02493517 213.59172125 109.8423046 215.69443748 105 218 C102.79280164 219.22577431 100.62467901 220.5068545 98.44921875 221.7890625 C96.19638318 223.06959382 93.94244231 224.34818218 91.6875 225.625 C89.21129555 227.03219835 86.7363197 228.44154656 84.26171875 229.8515625 C83.64569794 230.20244934 83.02967712 230.55333618 82.39498901 230.91485596 C76.57259607 234.23551853 70.78322638 237.61163061 65 241 C56.36516274 246.05654683 47.69387446 251.04596524 39 256 C29.78803049 261.25020014 20.59727085 266.53412327 11.4375 271.875 C10.42623047 272.46410156 9.41496094 273.05320312 8.37304688 273.66015625 C4.862671 275.71132661 1.3836562 277.7442292 -2 280 C-6.26497554 279.68833427 -9.28383358 278.55305735 -12.921875 276.3671875 C-13.85112793 275.81619385 -14.78038086 275.2652002 -15.73779297 274.69750977 C-16.73182129 274.09608154 -17.72584961 273.49465332 -18.75 272.875 C-20.91360121 271.58906731 -23.07768002 270.3039379 -25.2421875 269.01953125 C-26.35819336 268.3538916 -27.47419922 267.68825195 -28.62402344 267.00244141 C-34.01253101 263.80627861 -39.44352595 260.68489786 -44.875 257.5625 C-47.05998436 256.30353904 -49.24487972 255.04442362 -51.4296875 253.78515625 C-52.51475586 253.16012207 -53.59982422 252.53508789 -54.71777344 251.89111328 C-59.00297114 249.42212032 -63.28786469 246.95263421 -67.56752014 244.4740448 C-69.73684406 243.22645042 -71.9129888 241.99057679 -74.09831238 240.77122498 C-79.4059843 237.78658531 -84.44534036 234.76335285 -89.25854492 231.02587891 C-109.37787433 216.2182605 -131.0790874 218.18645547 -155.06866455 218.7979126 C-163.6554115 219.00197043 -172.24420741 219.073465 -180.83290672 219.14249039 C-183.81272932 219.17906699 -186.78971504 219.25352813 -189.76863098 219.334198 C-191.58442914 219.36406225 -193.40023999 219.39316731 -195.21606445 219.42138672 C-196.03621033 219.45357803 -196.8563562 219.48576935 -197.70135498 219.51893616 C-201.94805255 219.55463073 -203.52280352 219.36428122 -207.01774597 216.69631958 C-209.59449866 213.19134563 -209.61986315 211.26155918 -209 207 C-207.23984869 203.8149643 -206.50109084 203.16703028 -203 202 C-200.52066483 201.90921043 -198.0701102 201.87390751 -195.59106445 201.88647461 C-194.83960144 201.88632858 -194.08813843 201.88618256 -193.31390381 201.8860321 C-190.83033358 201.88672871 -188.34683837 201.89450933 -185.86328125 201.90234375 C-184.14121034 201.90420882 -182.41913889 201.90563231 -180.69706726 201.90663147 C-176.16460709 201.9104496 -171.63217896 201.92027389 -167.09973145 201.93133545 C-162.47469516 201.94156469 -157.84965371 201.94613234 -153.22460938 201.95117188 C-144.14972324 201.96189678 -135.0748693 201.9794879 -126 202 C-126 196.06 -126 190.12 -126 184 C-127.24612061 184.01571045 -128.49224121 184.0314209 -129.77612305 184.04760742 C-134.40724198 184.10198073 -139.03833278 184.13637711 -143.66967773 184.16479492 C-145.67265572 184.17986465 -147.6756008 184.2003241 -149.6784668 184.22631836 C-152.56046681 184.26278127 -155.44202984 184.27974461 -158.32421875 184.29296875 C-159.21711105 184.30845261 -160.11000336 184.32393646 -161.029953 184.33988953 C-165.85503267 184.34119034 -169.08446841 184.152208 -173 181 C-174.92863839 178.45770394 -175.00902291 177.21654982 -174.875 174 C-174 171 -174 171 -170 167 C-155.48 167 -140.96 167 -126 167 C-126 134.33 -126 101.66 -126 68 C-116.76 62.72 -107.52 57.44 -98 52 C-90.4038307 47.62315959 -82.80851981 43.24508723 -75.21777344 38.85888672 C-69.81329357 35.73675396 -64.4065396 32.61856414 -59 29.5 C-51.21097641 25.00683162 -43.42230562 20.51305568 -35.63574219 16.015625 C-33.40852668 14.73081652 -31.18004411 13.44820156 -28.95019531 12.16796875 C-24.42856617 9.57064464 -19.91622447 6.96885063 -15.46875 4.24609375 C-14.82389648 3.85736084 -14.17904297 3.46862793 -13.51464844 3.06811523 C-11.91384109 2.09917056 -10.32346892 1.11303767 -8.734375 0.125 C-5.28850689 -1.29272859 -3.59876046 -0.84310935 0 0 Z " fill="#C48958" transform="translate(323,27)"/>
<path d="M0 0 C1.51309794 0.40807981 3.0266889 0.81433526 4.54072571 1.21891785 C7.74611553 2.07825016 10.94847258 2.94782235 14.14898682 3.82513428 C19.13102588 5.18784673 24.12339079 6.5094607 29.11865234 7.82275391 C36.77450541 9.83739146 44.42499021 11.87115168 52.07150078 13.92096138 C56.41275413 15.08460714 60.75488975 16.24467571 65.09936523 17.39624023 C69.41469098 18.54010782 73.72767137 19.69243943 78.03910255 20.85089684 C79.65332158 21.28317121 81.26831554 21.71256382 82.88413048 22.138834 C105.05547012 27.99443805 105.05547012 27.99443805 112.10546875 38.17578125 C117.1236358 47.43658044 119.01930081 57.49858065 116.421875 67.91796875 C114.33959866 73.05021831 111.68366702 76.09047372 107.10546875 79.17578125 C106.44546875 79.17578125 105.78546875 79.17578125 105.10546875 79.17578125 C105.10546875 79.83578125 105.10546875 80.49578125 105.10546875 81.17578125 C128.75022152 77.71660243 146.29125246 68.22592069 166.7265625 56.16357422 C173.22963501 52.33785049 179.77723412 48.58901035 186.31835938 44.82885742 C191.35674884 41.92857918 196.38729302 39.017214 201.38989258 36.05566406 C203.15381448 35.01227871 204.92024828 33.97328064 206.6875 32.93554688 C208.89832539 31.63558155 211.10441397 30.32751186 213.3046875 29.00976562 C224.84724693 22.24827915 235.56984457 19.08972615 248.8125 22.41796875 C258.03172276 25.4648669 266.19539351 30.33307987 271.1875 38.86328125 C272.93614469 43.26837765 272.85228474 47.54552211 272.10546875 52.17578125 C268.00444692 61.23220446 257.29399306 65.97051847 249.02386475 70.60769653 C247.17990096 71.64163539 245.33976454 72.68211267 243.50048828 73.72436523 C241.58671471 74.80878164 239.67275259 75.89284434 237.75765991 76.97492981 C231.47650642 80.52451841 225.22612932 84.12664353 218.98046875 87.73828125 C216.83465733 88.97790251 214.68882398 90.21748582 212.54296875 91.45703125 C211.48335938 92.06933594 210.42375 92.68164062 209.33203125 93.3125 C206.07022868 95.19613175 202.80685031 97.07700446 199.54296875 98.95703125 C189.0883385 104.98017907 178.6450413 111.02110231 168.23046875 117.11328125 C156.03083585 124.24705122 143.76391768 131.26079638 131.48046875 138.24902344 C129.09110945 139.61308764 126.70583253 140.98292115 124.32421875 142.36035156 C123.6964151 142.72230621 123.06861145 143.08426086 122.42178345 143.45718384 C120.66733451 144.46912951 118.91442984 145.48375115 117.16162109 146.49853516 C101.53640831 155.07380372 83.9873177 151.32116443 67.73046875 146.67578125 C65.97306343 146.19244973 64.21498097 145.7115749 62.45629883 145.23291016 C58.55380317 144.1682143 54.65477726 143.09179174 50.75732422 142.00878906 C39.8344892 138.98521419 28.87538709 136.09464896 17.92243958 133.18249893 C13.19703021 131.9257866 8.4734011 130.66254304 3.75048828 129.39648438 C1.85151039 128.88820602 1.85151039 128.88820602 -0.08583069 128.36965942 C-2.47516255 127.73006708 -4.86420634 127.08939729 -7.25291443 126.44747925 C-8.31969925 126.16236481 -9.38648407 125.87725037 -10.4855957 125.58349609 C-11.4137056 125.33465668 -12.34181549 125.08581726 -13.29804993 124.82943726 C-30.70189184 120.4480748 -43.72377559 125.02725299 -58.70703125 133.73828125 C-59.70532959 134.31666748 -60.70362793 134.89505371 -61.73217773 135.4909668 C-63.12158569 136.32688354 -63.12158569 136.32688354 -64.5390625 137.1796875 C-65.37800049 137.68314697 -66.21693848 138.18660645 -67.08129883 138.70532227 C-67.67966553 139.19057373 -68.27803223 139.6758252 -68.89453125 140.17578125 C-68.89453125 143.35965283 -68.55225023 144.09158611 -66.92578125 146.6796875 C-66.51972656 147.33775391 -66.11367187 147.99582031 -65.6953125 148.67382812 C-65.26605469 149.35509766 -64.83679688 150.03636719 -64.39453125 150.73828125 C-59.89453125 157.92071368 -59.89453125 157.92071368 -59.89453125 160.17578125 C-63.79981629 162.4886015 -67.71412917 164.78497992 -71.63769531 167.06665039 C-72.97103192 167.8450789 -74.30179393 168.62793489 -75.62988281 169.4152832 C-77.53961856 170.5464234 -79.45805399 171.66130645 -81.37890625 172.7734375 C-81.97072693 173.12857925 -82.56254761 173.48372101 -83.17230225 173.84962463 C-85.56974183 175.22065204 -87.31749574 176.20180579 -90.11938477 176.07543945 C-92.18790821 175.0270955 -93.31806442 173.95605786 -94.8125 172.18359375 C-95.60358154 171.25812744 -95.60358154 171.25812744 -96.41064453 170.31396484 C-96.96220215 169.64961426 -97.51375977 168.98526367 -98.08203125 168.30078125 C-98.65937012 167.61967285 -99.23670898 166.93856445 -99.83154297 166.23681641 C-103.82592493 161.50870438 -107.75631022 156.72735813 -111.65234375 151.91796875 C-114.19706808 148.80577977 -116.7907135 145.73851628 -119.39453125 142.67578125 C-122.76741727 138.70678973 -126.10629899 134.71560945 -129.39453125 130.67578125 C-134.47628802 124.43661369 -139.68347231 118.30686163 -144.89453125 112.17578125 C-150.85461395 105.16343567 -156.7721192 98.1261732 -162.58203125 90.98828125 C-165.15599696 87.85778241 -167.77031375 84.76413681 -170.39453125 81.67578125 C-182.80185803 67.0668047 -182.80185803 67.0668047 -187.89453125 60.17578125 C-186.4277946 56.36595587 -184.62241703 55.12700382 -181.07421875 53.21484375 C-179.57459595 52.39330811 -179.57459595 52.39330811 -178.04467773 51.55517578 C-176.96387939 50.97622559 -175.88308105 50.39727539 -174.76953125 49.80078125 C-172.50671047 48.56321078 -170.24502247 47.32356723 -167.984375 46.08203125 C-167.40404007 45.76469025 -166.82370514 45.44734924 -166.2257843 45.12039185 C-159.85923774 41.63055679 -153.5939987 37.97453202 -147.33203125 34.30078125 C-146.2857959 33.68799316 -145.23956055 33.07520508 -144.16162109 32.44384766 C-141.73811616 31.02308781 -139.31569137 29.60053205 -136.89453125 28.17578125 C-134.44767254 30.51508573 -132.39964194 32.66658201 -130.75390625 35.62890625 C-130.40585938 36.24765625 -130.0578125 36.86640625 -129.69921875 37.50390625 C-129.17714844 38.45523438 -129.17714844 38.45523438 -128.64453125 39.42578125 C-128.28101563 40.07546875 -127.9175 40.72515625 -127.54296875 41.39453125 C-126.65419666 42.98496551 -125.77353189 44.57992573 -124.89453125 46.17578125 C-109.97075965 38.07167642 -95.07119447 29.89104162 -80.45703125 21.23828125 C-79.81548096 20.85881348 -79.17393066 20.4793457 -78.51293945 20.08837891 C-77.84480225 19.69312012 -77.17666504 19.29786133 -76.48828125 18.890625 C-71.06411241 15.6823974 -65.63445639 12.48383841 -60.18893433 9.3119812 C-58.50729722 8.33012986 -56.82987196 7.34107585 -55.15258789 6.35180664 C-36.21533984 -4.65882768 -20.94002325 -5.85738017 0 0 Z " fill="#E9C0AC" transform="translate(213.89453125,309.82421875)"/>
<path d="M0 0 C0.30396355 18.24550877 0.53305831 36.49035884 0.67355824 54.737854 C0.740536 63.21102636 0.83180574 71.68262388 0.98071289 80.15478516 C1.11047272 87.54108266 1.19419751 94.92623975 1.22315043 102.31364536 C1.24007242 106.22437832 1.27968785 110.13184968 1.37449074 114.04153442 C1.46311382 117.72640778 1.48988757 121.40669716 1.47039986 125.09253502 C1.47565236 127.08115231 1.54544146 129.06927521 1.61746216 131.05659485 C1.56175464 134.78918691 1.37133595 137.52273439 0 141 C-3.97441164 144.59381022 -8.15641805 146.69499168 -13 149 C-15.20726655 150.22567693 -17.37533867 151.50679481 -19.55078125 152.7890625 C-21.80361682 154.06959382 -24.05755769 155.34818218 -26.3125 156.625 C-28.78870445 158.03219835 -31.2636803 159.44154656 -33.73828125 160.8515625 C-34.35430206 161.20244934 -34.97032288 161.55333618 -35.60501099 161.91485596 C-41.42740393 165.23551853 -47.21677362 168.61163061 -53 172 C-62.22001963 177.39922869 -71.48261676 182.72048085 -80.76785278 188.00640869 C-90.37685269 193.47722129 -99.93743067 199.02466729 -109.45117188 204.66015625 C-110.37349609 205.20285156 -111.29582031 205.74554688 -112.24609375 206.3046875 C-113.44770142 207.0160083 -113.44770142 207.0160083 -114.67358398 207.74169922 C-117.06067631 209.03281831 -119.47503135 210.01197804 -122 211 C-122.39775084 192.78934942 -122.6971954 174.57983072 -122.88080692 156.36577034 C-122.96834325 147.90773156 -123.08758349 139.45239637 -123.2824707 130.99609375 C-123.45233028 123.62222117 -123.5616797 116.25030617 -123.59950441 108.87453163 C-123.62160979 104.97052958 -123.67321198 101.07212511 -123.79741096 97.16992569 C-124.52340781 73.45804791 -124.52340781 73.45804791 -120.35395241 67.74427605 C-116.40618035 64.23753814 -112.07225246 62.32696987 -107.08624458 60.72589207 C-103.96248501 59.63900498 -101.3733039 58.01062556 -98.56640625 56.26953125 C-96.56552298 55.11646044 -94.56421553 53.96412541 -92.5625 52.8125 C-91.46760254 52.18158447 -90.37270508 51.55066895 -89.24462891 50.90063477 C-85.83013293 48.93309543 -82.41511211 46.96646966 -79 45 C-74.62449212 42.48004706 -70.24943866 39.95930859 -65.875 37.4375 C-64.79661865 36.81584961 -63.7182373 36.19419922 -62.60717773 35.55371094 C-55.43241032 31.41377899 -48.27510873 27.24484098 -41.125 23.0625 C-32.59564988 18.07751597 -24.04501592 13.13060461 -15.47283936 8.21969604 C-14.20407807 7.49264828 -12.93572332 6.76489062 -11.66778564 6.03640747 C-9.90609211 5.02466773 -8.14254405 4.01615922 -6.37890625 3.0078125 C-5.3638501 2.42660645 -4.34879395 1.84540039 -3.30297852 1.24658203 C-1 0 -1 0 0 0 Z " fill="#E5C397" transform="translate(441,96)"/>
<path d="M0 0 C3.3470112 3.22048739 5.64994467 6.51003978 7.875 10.5625 C8.51179688 11.69816406 9.14859375 12.83382813 9.8046875 14.00390625 C11.49808919 17.07468748 13.17455195 20.15461845 14.8515625 23.234375 C23.77242545 39.60422853 32.99082335 55.79837793 42.421875 71.87890625 C45.56543842 77.24293698 48.66735256 82.63011203 51.76245117 88.0222168 C58.7595866 100.20885735 65.80275519 112.37649683 73.41308594 124.19433594 C73.87231445 124.91137695 74.33154297 125.62841797 74.8046875 126.3671875 C75.22476074 127.0154248 75.64483398 127.66366211 76.07763672 128.33154297 C77 130 77 130 77 132 C73.09471496 134.31282025 69.18040208 136.60919867 65.25683594 138.89086914 C63.92349933 139.66929765 62.59273732 140.45215364 61.26464844 141.23950195 C59.35491269 142.37064215 57.43647726 143.4855252 55.515625 144.59765625 C54.92380432 144.952798 54.33198364 145.30793976 53.722229 145.67384338 C51.32478942 147.04487079 49.57703551 148.02602454 46.77514648 147.8996582 C44.70662304 146.85131425 43.57646683 145.78027661 42.08203125 144.0078125 C41.29094971 143.08234619 41.29094971 143.08234619 40.48388672 142.13818359 C39.9323291 141.47383301 39.38077148 140.80948242 38.8125 140.125 C38.23516113 139.4438916 37.65782227 138.7627832 37.06298828 138.06103516 C33.06860632 133.33292313 29.13822103 128.55157688 25.2421875 123.7421875 C22.69746317 120.62999852 20.10381775 117.56273503 17.5 114.5 C14.12711398 110.53100848 10.78823226 106.5398282 7.5 102.5 C2.41824323 96.26083244 -2.78894106 90.13108038 -8 84 C-13.9600827 76.98765442 -19.87758795 69.95039195 -25.6875 62.8125 C-28.26146571 59.68200116 -30.8757825 56.58835556 -33.5 53.5 C-45.90732678 38.89102345 -45.90732678 38.89102345 -51 32 C-49.53326335 28.19017462 -47.72788578 26.95122257 -44.1796875 25.0390625 C-42.6800647 24.21752686 -42.6800647 24.21752686 -41.15014648 23.37939453 C-40.06934814 22.80044434 -38.9885498 22.22149414 -37.875 21.625 C-35.61217922 20.38742953 -33.35049122 19.14778598 -31.08984375 17.90625 C-30.21934135 17.43023849 -30.21934135 17.43023849 -29.33125305 16.9446106 C-22.96470649 13.45477554 -16.69946745 9.79875077 -10.4375 6.125 C-8.86814697 5.20581787 -8.86814697 5.20581787 -7.26708984 4.26806641 C-4.84358491 2.84730656 -2.42116012 1.4247508 0 0 Z " fill="#388BB5" transform="translate(77,338)"/>
<path d="M0 0 C2.62201877 1.2326041 4.83424888 2.65105815 7.14501953 4.39013672 C9.40975286 5.98697982 11.76929495 7.33239454 14.1796875 8.69921875 C21.85791575 13.08426969 21.85791575 13.08426969 25.04296875 14.98828125 C25.80448242 15.4371167 26.56599609 15.88595215 27.35058594 16.34838867 C27.89360352 16.79287354 28.43662109 17.2373584 28.99609375 17.6953125 C28.99609375 18.6853125 28.99609375 19.6753125 28.99609375 20.6953125 C27.4646875 21.53449219 27.4646875 21.53449219 25.90234375 22.390625 C16.04508063 27.81708647 6.29532436 33.40838822 -3.41210938 39.09814453 C-11.24584766 43.68419664 -19.11660622 48.20236355 -27.00390625 52.6953125 C-33.74878467 56.5387132 -40.49052668 60.38657348 -47.19921875 64.29296875 C-48.18591553 64.86539307 -49.1726123 65.43781738 -50.18920898 66.02758789 C-52.14432547 67.17831545 -54.08684692 68.3507231 -56.01586914 69.54467773 C-61.31476225 72.78242028 -66.3693745 75.27435038 -72.2421875 77.3203125 C-83.24518756 81.35855149 -83.24518756 81.35855149 -91.00390625 89.6953125 C-95.22282943 103.79268113 -93.19489661 120.24299792 -92.00390625 134.6953125 C-96.84051531 132.83183883 -101.23596878 130.46695202 -105.75390625 127.9453125 C-106.51445312 127.52765625 -107.275 127.11 -108.05859375 126.6796875 C-109.55972005 125.84516305 -111.05146707 124.99346507 -112.5316925 124.12240601 C-114.12663617 123.20171953 -115.74746109 122.32387436 -117.39494324 121.50088501 C-123.53042066 118.11045871 -123.53042066 118.11045871 -124.79025269 114.34509277 C-125.04646432 111.46561015 -125.01734258 108.71586228 -124.8828125 105.828125 C-124.87007797 104.79340057 -124.85734344 103.75867615 -124.84422302 102.69259644 C-124.79398329 99.39941389 -124.68110877 96.11181798 -124.56640625 92.8203125 C-124.52124743 90.58341314 -124.4801853 88.34642706 -124.44335938 86.109375 C-124.34432546 80.63612649 -124.19389338 75.16611848 -124.00390625 69.6953125 C-123.29186035 69.28917725 -122.57981445 68.88304199 -121.84619141 68.46459961 C-105.61628717 59.20501487 -89.40910479 49.90756227 -73.23046875 40.55859375 C-69.96866618 38.674962 -66.70528781 36.79408929 -63.44140625 34.9140625 C-53.78615881 29.35169905 -44.13303058 23.78592898 -34.50927734 18.16918945 C-32.48835544 16.99243587 -30.46400786 15.82154287 -28.43603516 14.65698242 C-23.89549054 12.03825501 -19.45840059 9.37218707 -15.1484375 6.38671875 C-5.025553 -0.509744 -5.025553 -0.509744 0 0 Z " fill="#D7EBFC" transform="translate(366.00390625,51.3046875)"/>
<path d="M0 0 C0.66574004 -0.00171833 1.33148008 -0.00343666 2.01739407 -0.00520706 C4.24038015 -0.00954908 6.46329213 -0.0065777 8.6862793 -0.00341797 C10.26255318 -0.00460304 11.83882684 -0.00612576 13.4151001 -0.00796509 C18.53025001 -0.01173535 23.64535621 -0.00411505 28.76049805 0.00439453 C30.50788367 0.00666356 32.25526933 0.0089015 34.00265503 0.0111084 C45.34338532 0.0271678 56.68395186 0.0651885 68.02456665 0.11824036 C70.35084807 0.12894739 72.67713171 0.13872782 75.00341797 0.14831543 C82.84914762 0.18220316 90.69417056 0.23994541 98.53939819 0.33892822 C100.84615453 0.36582054 103.15299683 0.3861669 105.45986938 0.39984131 C108.62448075 0.42072449 111.78769881 0.46659132 114.9519043 0.52001953 C115.86804504 0.52125824 116.78418579 0.52249695 117.72808838 0.52377319 C123.79677243 0.66699021 123.79677243 0.66699021 127.01025391 2.94873047 C129.13223605 6.16719617 128.98577412 8.36496204 128.44799805 12.12939453 C126.580913 14.49436892 125.12738374 15.78970169 122.44799805 17.12939453 C120.7363113 17.23305747 119.02062532 17.27323988 117.30583191 17.28329468 C116.21646835 17.29189514 115.1271048 17.30049561 114.00473022 17.30935669 C112.80417999 17.31361664 111.60362976 17.31787659 110.36669922 17.32226562 C109.10647446 17.33044312 107.84624969 17.33862061 106.5478363 17.3470459 C102.3622349 17.37326824 98.17662348 17.38857353 93.9909668 17.40283203 C92.55040289 17.40819159 91.10983905 17.4135691 89.66927528 17.41896439 C83.67722916 17.44059326 77.68518575 17.45933023 71.69311047 17.47058678 C63.10394579 17.48682797 54.51523336 17.52000909 45.92623919 17.57698762 C39.88795405 17.61568015 33.84978989 17.6352186 27.81138402 17.64050734 C24.20437979 17.64416178 20.59785787 17.65619155 16.99098778 17.68861008 C12.96621149 17.72426614 8.94240781 17.72032174 4.91748047 17.71289062 C3.72300293 17.72929596 2.52852539 17.74570129 1.29785156 17.76260376 C-6.74870275 17.70163299 -6.74870275 17.70163299 -10.8000946 14.81558228 C-13.09186367 11.30162819 -13.15141856 9.25038371 -12.55200195 5.12939453 C-9.57465622 -0.25818346 -5.71736988 0.00379577 0 0 Z " fill="#E5C397" transform="translate(126.552001953125,228.87060546875)"/>
<path d="M0 0 C1.17388779 -0.01292336 1.17388779 -0.01292336 2.37149048 -0.02610779 C4.95576146 -0.04879112 7.53895003 -0.04202464 10.12329102 -0.03295898 C11.92163923 -0.03819383 13.71998468 -0.04446979 15.51832581 -0.05174255 C19.28692547 -0.06215132 23.05514766 -0.05757899 26.82373047 -0.04296875 C31.65060273 -0.02578657 36.47628401 -0.04926616 41.30302334 -0.08445835 C45.01686983 -0.10643205 48.73043139 -0.10499088 52.44432259 -0.09669304 C54.22370776 -0.09587337 56.00311383 -0.10273973 57.78243828 -0.11746407 C60.27236713 -0.13490873 62.76015676 -0.12037024 65.25 -0.09765625 C66.34972389 -0.11519455 66.34972389 -0.11519455 67.47166443 -0.13308716 C71.37067391 -0.06081191 73.05715557 0.42803202 76.14686584 2.88539124 C78.18969727 5.53344727 78.18969727 5.53344727 78.81469727 8.53344727 C77.96752906 12.59985467 76.39332474 13.93452164 73.18969727 16.53344727 C69.89208984 17.19287109 69.89208984 17.19287109 66.08422852 17.24047852 C65.38343674 17.2557811 64.68264496 17.27108368 63.96061707 17.28684998 C61.64079778 17.33090489 59.3224025 17.33920042 57.00219727 17.34594727 C55.37522195 17.36673849 53.74826758 17.3892316 52.12133789 17.41333008 C48.65009552 17.45905902 45.17926985 17.48716819 41.70776367 17.50268555 C36.97000004 17.52439655 32.23334997 17.58196453 27.49601746 17.64775085 C23.660617 17.69772317 19.8252058 17.73169509 15.98959351 17.7605896 C14.12889944 17.77577985 12.26823363 17.79498034 10.40762329 17.81826782 C7.79313877 17.84793885 5.17933114 17.85750616 2.56469727 17.86157227 C1.40142159 17.87999428 1.40142159 17.87999428 0.21464539 17.89878845 C-4.31637171 17.88037495 -7.19962987 17.32180306 -10.81030273 14.53344727 C-12.73894112 11.99115121 -12.81932564 10.74999709 -12.68530273 7.53344727 C-10.68521098 0.67598983 -6.54302357 -0.05808014 0 0 Z " fill="#E5C397" transform="translate(160.810302734375,193.466552734375)"/>
</svg>
